<?xml version="1.0" encoding="utf-8"?>
<!-- Generator: Adobe Illustrator 27.5.0, SVG Export Plug-In . SVG Version: 6.00 Build 0)  -->
<svg version="1.1" id="Layer_1" xmlns="http://www.w3.org/2000/svg" xmlns:xlink="http://www.w3.org/1999/xlink" x="0px" y="0px"
	 viewBox="0 0 1200 1200" style="enable-background:new 0 0 1200 1200;" xml:space="preserve">
<g>
	<path d="M1123.571,1028.47c-31.37,0.436-62.749,0.546-94.109,1.389c-39.586,1.063-79.157,2.716-118.733,4.148
		c-2.362,0.085-4.712,0.471-7.042,1.594c15.819,0,31.639,0,47.459,0c0.001,0.673,0.002,1.345,0.003,2.017
		c-19.081,0-38.167-0.278-57.243,0.044c-140.07,2.367-280.126-0.423-420.188-0.945c-102.699-0.382-205.399-0.727-308.098-1.067
		c-17.307-0.057-34.614-0.008-51.923-1.072c186.671-3.042,373.373-1.017,560.04-5.113c-199.305-0.705-398.587-3.874-597.893-4.224
		c129.988-3.722,260.044,0.944,390.025-3.57c-89.374-1.277-178.77,0.355-268.136-2.11c89.973-0.717,179.909-3.69,269.892-3.352
		c-0.001-0.53-0.001-1.061-0.002-1.592c-40.549,0-81.099-0.213-121.645,0.06c-40.972,0.276-81.94,1.314-122.912,1.501
		c-40.722,0.186-81.435,1.125-122.171,0.697c60.298-1.368,120.596-2.737,180.894-4.105c-28.621-0.259-57.058-5.215-86.827-3.216
		c3.431-1.354,6-1.161,8.509-1.225c65.298-1.681,130.608-2.676,195.925-2.885c92.068-0.295,184.138-0.698,276.207-0.031
		c81.779,0.593,163.557,1.202,245.336,1.781c0.918,0.006,2.026,0.665,2.841-0.645c-1.899-2.07-4.376-2.249-6.953-2.247
		c-17.993,0.015-35.986,0.008-53.979-1.189c17.196,0,34.392-0.048,51.587,0.036c3.956,0.019,6.149-0.445,3.15-4.903
		c-1.31-1.948-2.651-4.375-2.671-6.596c-0.057-6.285-3.437-6.721-8.612-6.66c-22.742,0.269-45.489,0.116-68.234-1.083
		c23.144,0,46.288-0.008,69.432,0.006c5.788,0.003,6.048-0.066,4.324-5.753c-6.947-22.909-16.906-44.524-28.97-65.142
		c-6.617-11.308-12.361-22.955-16.04-35.518c-1.733-5.917-4.983-9.689-10.851-11.894c-4.297-1.615-9.101-2.97-12.038-7.163
		c21.714,1.337,40.117-6.821,58.556-18.685c-1.466,4.247-4.456,5.698-6.839,7.485c-2.417,1.813-5.223,3.106-9.059,5.319
		c5.263-0.935,9.246-1.089,13.149-2.324c-5.395,7.328-14.122,9.338-21.242,13.992c1.575,1.255,2.746,0.103,3.846-0.356
		c7.265-3.032,14.571-5.987,21.693-9.332c6.223-2.923,6.68-5.446,2.457-10.706c-1.019-1.27-1.41-2.632-0.205-3.593
		c1.385-1.105,1.978,0.575,2.678,1.429c4.531,5.529,4.301,9.21-0.887,13.957c-1.138,1.041-2.256,1.822-1.666,3.83
		c6.276,21.359,9.927,43.44,17.675,64.394c1.602,4.333,3.346,8.63,5.304,12.813c8.608,18.388,17.028,23.459,36.992,20.507
		c11.571-1.711,23.461-3.497,32.707-12.138c2.522-2.357,5.725-0.639,6.01,3.048c0.128,1.656-0.028,2.437,2.008,3.524
		c2.979,1.591,0.76,5.216-0.031,7.331c-1.411,3.777-3.862,7.675-8.084,8.778c-9.122,2.382-14.775,9.409-22.812,15.823
		c48.167,0.202,95.042-0.538,141.884,1.695c-32.197,0-64.393,0.067-96.59-0.029c-15.255-0.046-30.518,0.479-45.765-0.461
		c-0.51-0.031-1.06-0.118-1.532,0.021c-10.865,3.207-20.551,8.177-26.876,18.121l0.138-0.117c-1.742,1.066-3.487,2.128-5.218,3.21
		c-0.066,0.041-0.008,0.279-0.008,0.903c29.394,0,58.78,0,88.166,0c0.004,0.462,0.008,0.924,0.012,1.385
		c-116.193,3.277-232.466-0.264-348.665,2.514c0,0.486-0.001,0.972-0.001,1.458c147.285,1.294,294.57,2.589,441.855,3.883
		c0,0.686,0,1.372,0,2.058c-79.88,1.71-159.834-1.306-239.674,3.775c79.853,4.09,159.775,3.627,239.674,4.456
		C1123.571,1027.098,1123.571,1027.784,1123.571,1028.47z M944.969,960.169c-5.667-4.321-10.248-9.481-13.904-15.544
		c-8.698-14.424-12.78-30.551-17.195-46.527c-3.187-11.535-5.76-23.239-8.77-34.826c-0.34-1.31-0.179-4.033-2.892-3.207
		c-2.274,0.692-3.971,2.146-2.932,4.996c0.175,0.481,0.296,0.982,0.428,1.478c4.969,18.689,10.562,37.192,17.536,55.233
		c4.376,11.32,8.826,22.677,16.44,32.36C936.446,957.651,939.667,960.686,944.969,960.169z M882.542,1036.019
		c-21.693,0-43.387,0-65.08,0C839.159,1037.035,860.854,1037.55,882.542,1036.019z"/>
	<path d="M781.015,1049.739c22.624,1.342,48.682,1.04,74.726,1.809c-15.713,0.289-31.361,1.917-47.103,1.612
		c-15.924-0.309-31.844-1.611-47.786-0.367c90.934,2.625,181.933,1.008,272.54,4.005c-226.738,6.218-453.816,8.58-680.931,2.698
		c26.164,0.019,52.323,0.014,78.489,0.371c26.138,0.357,52.285,0.078,78.428,0.078c-0.002-0.522-0.003-1.044-0.005-1.566
		c-45.048,0-90.095,0-135.143,0c-0.004-0.533-0.009-1.065-0.013-1.598c120.027,0.515,239.981-4.066,360.004-4.245
		c-65.227,0.458-130.401-1.514-191.703-4.167c39.397-1.513,82.6,3.694,116.38,1.566c-104.689-5.571-218.994-4.519-333.217-7.601
		c229.536-0.397,459.065-2.344,688.613,0.713C935.281,1043.048,856.403,1047.677,781.015,1049.739z M775.202,1058.481
		c24.734,0,49.466,0,74.198,0C824.592,1057.079,799.804,1057.126,775.202,1058.481z M873.788,1043.396
		c0-0.063-0.001-0.125-0.001-0.188c-5.754,0-11.508,0-17.263,0c0.001,0.063,0.001,0.125,0.002,0.188
		C862.28,1043.396,868.034,1043.396,873.788,1043.396z"/>
	<path d="M977.082,1080.042c-213.719,0.687-427.409,6.103-641.149,3.373c105.254-0.463,210.502-1.923,315.77-2.057
		c-76.737-2.89-153.557-2.584-229.454-6.059C606.692,1070.794,791.902,1073.082,977.082,1080.042z"/>
	<path d="M105.718,1001.826c236.99-2.245,473.895-3.175,710.807-2.549c-18.612,0.551-37.253,0.042-55.847,1.648
		c5.91,1.665,11.989,0.529,17.944,1.389C554.289,1000.985,329.959,1002.266,105.718,1001.826z M750.826,1000.486
		c-0.001-0.142-0.002-0.285-0.003-0.427c-5.214,0-10.429,0-15.643,0c0.001,0.142,0.003,0.285,0.004,0.427
		C740.398,1000.486,745.612,1000.486,750.826,1000.486z"/>
	<path d="M200.132,983.639c176.639-2.282,353.272-1.956,529.899,1.151C553.397,984.774,376.767,983.269,200.132,983.639z"/>
	<path d="M307.456,993.927c117.55-1.234,235.028-2.016,352.508-0.642C542.438,993.302,424.913,994.885,307.456,993.927z"/>
	<path d="M846.106,1064.902c-102.666,0.673-205.263,3.276-307.815-2.12C640.906,1066.536,743.56,1062.967,846.106,1064.902z"/>
	<path d="M613.88,967.492c-47.255,0.845-94.509,1.301-141.758,0C519.375,967.492,566.628,967.492,613.88,967.492z"/>
	<path d="M947.294,1002.885c36.303,0.016,72.607,0.033,108.91,0.046c13.355,0.005,26.709,0.001,40.065,0.277
		c-29.213,1.042-58.43,1.447-87.657,1.266c-18.322-0.114-36.646-0.041-54.969-0.054c-2.211-0.002-4.51,0.306-6.203-1.657
		C947.432,1002.768,947.294,1002.885,947.294,1002.885z"/>
	<path d="M338.22,976.345c35.255,0,70.509,0,105.763,0c0,0.051,0,0.102-0.001,0.153c-35.254,0-70.509,0-105.764,0
		C338.219,976.447,338.22,976.396,338.22,976.345z"/>
	<path d="M615.369,535.173c11.796-0.388,23.326-1.841,33.51-8.66C639.378,536.057,627.618,536.592,615.369,535.173z"/>
	<path d="M800.132,1068.249c-16.494,0-32.988,0-49.482,0c0-0.087,0-0.174,0-0.261c16.494,0,32.988,0,49.481,0
		C800.131,1068.075,800.131,1068.162,800.132,1068.249z"/>
	<path d="M191.143,1018.966c-13.08,0-26.161,0-39.241,0c0-0.156,0-0.313,0.001-0.469c13.007,0,26.015,0,39.022,0
		C190.997,1018.653,191.07,1018.81,191.143,1018.966z"/>
	<path d="M785.738,1002.02c10.199,0,20.398,0,30.597,0c0,0.133,0.001,0.267,0.001,0.4c-10.199,0-20.398,0-30.598,0
		C785.738,1002.287,785.738,1002.154,785.738,1002.02z"/>
	<path d="M717.511,993.131c-9.199,0-18.398,0-27.597,0c-0.001-0.049-0.001-0.099-0.002-0.148c9.169,0,18.339,0,27.508,0
		C717.45,993.032,717.48,993.081,717.511,993.131z"/>
	<path d="M599.717,1052.883c-8.334,0-16.668,0-25.001,0c0-0.086,0-0.171,0.001-0.256c8.334,0,16.668,0,25.002,0
		C599.718,1052.712,599.718,1052.797,599.717,1052.883z"/>
	<path d="M209.371,1011.327c6.621,0,13.242,0,19.863,0c0.002,0.138,0.004,0.277,0.005,0.416c-6.659,0-13.318,0-19.977,0
		C209.298,1011.604,209.334,1011.465,209.371,1011.327z"/>
	<path d="M182.747,1009.628c-5.107,0-10.215,0-15.322,0c0-0.097,0-0.193,0-0.29c5.109,0,10.218,0,15.327,0
		C182.75,1009.435,182.748,1009.532,182.747,1009.628z"/>
	<path d="M727.92,690.858c-2.477-0.172-4.102,1.58-5.885,2.788c-10.043,6.802-21.269,11.582-31.414,18.222
		c12.125-9.193,25.186-16.896,38.539-24.138C730.198,689.348,728.812,690.005,727.92,690.858z"/>
	<path d="M823.98,679.951c0.603-1.061-1.485-4.583,2.515-3.35c1.591,0.491,5.205-1.711,4.421,2.49
		c-0.321,1.722,0.371,5.24-3.206,4.346C826.379,683.105,822.949,683.872,823.98,679.951z"/>
	<path d="M832.452,683.369c-0.56-0.778,0.381-2.475,0.254-4.088c-0.116-1.465-0.013-2.804,2.035-2.617
		c1.117,0.102,2.581-0.333,2.751,1.413c0.165,1.687,0.178,3.407-1.091,4.799C833.856,679.998,835.098,685.037,832.452,683.369z"/>
	<path style="fill:none;" d="M696.695,517.993c11.454-0.37,21.904,6.227,33.527,4.692
		C719.241,519.774,708.599,514.51,696.695,517.993z"/>
	<path style="fill:none;" d="M699.205,510.809c-7.448-1.876-14.265,0.888-21.245,2.452
		C685.629,516.886,692.23,512.43,699.205,510.809z"/>
	<path style="fill:none;" d="M676.99,565.002c-0.483,1.442-1.164,2.85-1.96,4.147c-0.935,1.523-1.914,2.975-0.434,4.622
		c1.366,1.52,3.201,1.208,4.796,0.664c5.484-1.869,8.732-6.136,12.659-11.202c-3.636,0.469-4.27,3.323-7.226,3.825
		c7.288-9.454,17.22-14.049,27.586-18.641C698.315,543.492,681.47,551.628,676.99,565.002z"/>
	<path style="fill:none;" d="M763.376,513.829c-1.866-2.588-3.462-2.696-4.882-3.122c-9.546-2.867-19.822-0.161-29.281-3.803
		c-0.458-0.177-1.527-0.175-1.138,0.894c0.214,0.587,0.854,1.018,1.302,1.52c-4.399-1.058-7.836-4.084-11.895-5.82
		c-6.625-2.833-13.387-5.667-20.738-3.424c-8.328,2.541-15.948,6.531-22.346,12.638c1.102,1.148,2.232,0.965,3.413,0.504
		c13.786-12.935,25.896-16.351,40.709-6.625c2.148,1.41,4.286,2.835,6.455,4.212c7.325,4.653,15.347,5.149,24.446,4.179
		c-6.018-2.629-12.455-0.47-17.196-4.644C742.202,512.384,752.459,510.799,763.376,513.829z"/>
	<path style="fill:none;" d="M677.585,552.959c14.055-12.122,30.394-7.791,46.305-6.383
		C701.923,537.854,687.082,536.933,677.585,552.959z"/>
	<path style="fill:none;" d="M703.587,528.475c7.331,4.754,15.11,6.798,19.709,5.527
		C716.547,532.109,710.067,530.292,703.587,528.475z"/>
	<path style="fill:none;" d="M750.848,542.662c4.434-1.34,8.626-3.162,12.098-6.35C758.669,538.003,754.212,539.295,750.848,542.662
		z"/>
	<path style="fill:none;" d="M590.589,833.388c-15.454,0-30.907,0-46.361,0C559.7,835.277,575.155,835.354,590.589,833.388z"/>
	<path style="fill:none;" d="M613.033,837.579c6.406,9.43,9.355,20.545,14.462,30.62c1.254,2.475,2.339,5.024,4.606,6.792
		c-0.582-2.552-1.395-4.953-2.355-7.294c-4.153-10.121-6.713-21.041-13.075-30.071c-8.963-12.723-17.898-25.544-29.871-35.822
		c-3.114-2.673-5.411-6.128-7.69-9.588c-3.889-5.905-5.716-12.676-8.667-18.96c1.953,11.094,6.325,21.291,14.208,29.263
		C595.314,813.3,604.561,825.106,613.033,837.579z"/>
	<path style="fill:none;" d="M907.419,613.882c-0.334-5.926-0.604-10.843-0.892-15.76c-0.072-1.228-0.241-2.58-1.835-2.552
		c-2.156,0.037-1.825,1.858-1.51,3.013C904.465,603.3,904.499,608.339,907.419,613.882z"/>
	<path style="fill:none;" d="M572.168,804.724c-3.32-4.34-6.724-8.616-9.209-13.511c-2.452-4.829-4.104-9.99-5.838-15.113
		c0.88,16.335,10.145,32.149,27.512,41.622C580.773,811.995,575.605,809.216,572.168,804.724z"/>
	<path style="fill:none;" d="M728.63,634.786c-3.273-11.071-8.587-20.971-14.87-30.372
		C717.954,614.965,722.372,625.399,728.63,634.786z"/>
	<path style="fill:none;" d="M772.326,539.361c-5.13,5.211-11.193,9.207-16.675,13.891
		C763.333,551.146,769.788,547.557,772.326,539.361z"/>
	<path style="fill:none;" d="M691.485,570.066c-4.387,3.534-8.888,6.815-16.274,6.667
		C681.512,579.936,685.888,577.85,691.485,570.066z"/>
	<path style="fill:none;" d="M686.137,133.04c6.971,9.048,13.942,18.097,20.913,27.145c0.375-0.303,0.749-0.606,1.124-0.909
		c-6.978-9.036-13.956-18.072-20.935-27.108C686.871,132.459,686.504,132.749,686.137,133.04z"/>
	<path style="fill:none;" d="M836.965,560.492c1.551-4.958,3.102-9.916,4.653-14.874
		C838.664,550.135,835.436,554.566,836.965,560.492z"/>
	<path style="fill:none;" d="M924.179,623.346c-2.166-5.654-3.021-11.58-3.412-17.591c-0.278-4.277-0.605-8.55-0.911-12.825
		c-0.098-1.371-0.024-2.911-1.994-2.96c-1.847-0.046-2.84,0.997-3.034,2.787c-0.091,0.849-0.12,1.714-0.074,2.566
		c0.622,11.538,4.644,22.056,9.791,32.214c0.825,1.628,1.878,3.391,4.212,2.101C925.837,628.562,925.129,625.824,924.179,623.346z"
		/>
	<path style="fill:none;" d="M728.05,592.606c-1.977-0.916-3.98-1.775-6.061-2.064c-3.033-0.421-6.215,2.327-5.906,4.744
		C719.215,590.695,723.91,593.203,728.05,592.606z"/>
	<path style="fill:none;" d="M953.768,529.145c-1.915,1.679-4.217,3.3-5.006,7.222c3.304-3.075,6.133-5.214,8.324-7.877
		c2.349-2.855,2.803-5.932-1.134-7.992C957.68,523.941,956.645,526.622,953.768,529.145z"/>
	<path style="fill:none;" d="M875.632,508.615c1.405,4.699,2.441,8.754,1.674,12.976
		C879.083,517.276,880.62,512.983,875.632,508.615z"/>
	<path style="fill:none;" d="M635.881,848.115c-8.324-16.994-19.401-31.981-34.445-43.539c-10.85-8.336-19.562-18.033-25.065-30.625
		c-2.145-4.908-5.059-9.412-10.795-13.344c4.299,8.468,8.172,15.624,11.6,22.987c3.385,7.271,8.159,13.469,13.775,19.032
		c17.082,16.921,31.023,35.864,38.866,58.886c1.435,4.212,3.02,8.427,6.315,13.413c-6.276-24.45-16.518-45.192-32.868-62.811
		c7.218,7.249,14.628,14.137,19.591,23.091c7.135,12.875,14.279,25.751,21.754,38.429c2.304,3.908,4.784,8.103,9.676,9.585
		c-3.902-5.1-7.28-10.508-9.884-16.402C641.631,860.551,638.893,854.265,635.881,848.115z"/>
	<path style="fill:none;" d="M816.681,307.832c-26.315-38.703-53.043-77.104-82.815-113.198
		C762.205,231.889,788.91,270.25,816.681,307.832z"/>
	<path style="fill:none;" d="M655.25,540.714c4.941-1.462,8.86-4.63,12.77-7.601C663.398,535.186,658.867,537.225,655.25,540.714z"
		/>
	<path style="fill:none;" d="M718.273,485.728c-7.659-7.102-13.881-7.528-23.683-0.885c13.501,1.656,23.812,10.878,38.43,11.15
		C726.658,493.012,722.355,489.513,718.273,485.728z"/>
	<path style="fill:none;" d="M870.814,465.33c-2.324,0.872,0.06,1.691,0.153,2.565c0.29,2.704,2.819,5.322,0.456,8.136
		c-0.899,1.07-0.131,1.399,0.625,1.804c5.296,2.833,6.919,7.64,7.531,13.027c0.244-0.992,0.158-2.358,0.788-2.913
		c3.126-2.756,1.483-4.446-0.943-6.401c-3.492-2.814-5.028-6.785-5.76-11.093c-0.171-1.005-0.198-2.039-0.236-3.061
		C873.363,465.652,872.472,464.708,870.814,465.33z"/>
	<path style="fill:none;" d="M700.041,533.981c-9.426-5.218-27.001-0.813-32.547,6.876
		C678.412,538.073,688.539,532.773,700.041,533.981z"/>
	<path style="fill:none;" d="M866.907,443.078c2.971,5.59,2.5,12.244,5.869,18.414C874.084,453.325,872.101,447.013,866.907,443.078
		z"/>
	<path style="fill:none;" d="M625.296,579.113c11.704,13.601,19.733,14.883,31.101,4.845
		C645.826,582.888,636.255,577.822,625.296,579.113z"/>
	<path style="fill:none;" d="M850.197,847.188c9.076-1.706,17.945-4.17,26.677-7.655c-13.177,1.583-26.362,3.538-39.789,1.628
		C840.804,845.144,844.638,848.233,850.197,847.188z"/>
	<path style="fill:none;" d="M725.781,823.867c9-5.135,17.363-11.15,24.839-18.239C741.741,810.997,733.474,817.042,725.781,823.867
		z"/>
	<path style="fill:none;" d="M673.486,841.133c-10.04-4.883-19.31-11.118-28.823-16.922
		C653.269,831.605,662.177,838.465,673.486,841.133z"/>
	<path style="fill:none;" d="M834.322,674.365c-7.009-0.245-14.012-0.84-21.001-1.471c-20.23-1.829-38.627-10.308-57.749-16.135
		c-6.219-1.895-6.154-2.236-7.625,4.128c-0.179,0.777-1.297,1.727,0.007,2.632c1.788-1.315,1.059-5.182,4.607-4.598
		c0.978,0.161,2.529,0.399,2.412,1.485c-0.279,2.586-0.3,5.531-3.633,6.653c1.48,0.111,3.273,1.118,3.622-1.355
		c0.947-6.698,5.033-5.548,9.437-3.918c2.565,0.95,5.262,1.559,7.787,2.596c15.164,6.224,30.885,10.055,47.238,11.305
		c1.741,0.133,4.547-0.18,3.632,2.724c-0.614,1.945,0.363,6.076-3.825,5.233c-5.096-1.026-7.009,1.646-8.927,5.71
		c-1.808,3.833-4.811,7.056-7.83,10.124c-1.909,1.94-3.762,3.937-5.64,5.909c7.662-3.81,12.561-10.09,16.237-17.358
		c1.241-2.453,2.934-2.729,5.385-3.453c3.802-1.124,6.512,4.423,10.273,0.965c0.348-0.32,0.737,1.722,0.44,2.57
		c-0.959,2.74-1.863,5.549-3.242,8.084c-11.319,20.801-26.251,38.847-42.982,55.438c-18.342,18.189-38.994,33.405-61.113,46.909
		c9.614-2.512,18.42-6.853,26.738-12.342c21.871-14.432,41.482-31.606,59.061-50.872c11.942-13.088,24.063-26.696,24.496-46.177
		c0.018-0.804,0.101-2.257,0.899-2.152c7.198,0.943,4.662-4.707,5.57-8.018C839.657,675.112,837.702,674.483,834.322,674.365z"/>
	<path style="fill:none;" d="M804.019,718.408c-8.106,7.89-16.212,15.78-24.318,23.67
		C789.723,736.101,797.754,728.105,804.019,718.408z"/>
	<path style="fill:none;" d="M760.038,803.359c2.914-2.033,5.827-4.065,8.741-6.098c-21.825,22.688-49.549,35.558-77.707,47.778
		c17.292-2.343,33.284-8.144,47.412-18.313c23.247-16.734,42.529-37.637,61.007-59.319c0.972-1.14,1.563-2.605,2.332-3.919
		c-13.521,13.83-27.978,26.422-42.602,38.838C759.493,802.671,759.766,803.015,760.038,803.359z"/>
	<path style="fill:none;" d="M718.419,741.133c-7.56-2.757-15.027-6.483-22.838-7.466c-14.905-1.876-25.852-10.686-37.526-18.513
		c11.659,2.385,21.25,9.467,33.116,14.779c-2.421-2.64-2.901-3.704-0.802-5.833c6.424-6.516,13.524-12.233,21.729-18.968
		c-6.471,1.605-9.125,6.75-14.961,8.57c4.976-5.16,10.231-8.047,15.179-11.363c5.366-3.598,10.982-6.869,15.605-11.481
		c0.892-0.853,2.278-1.51,1.239-3.127c2.673-1.742,5.345-3.484,8.018-5.226c-12.323,3.233-22.027,11.756-33.726,16.249
		c11.019-7.692,21.59-16.051,34.016-21.549c-3.751,0.437-7.254,1.599-10.738,2.938c-13.025,5.006-23.601,13.777-34.401,22.209
		c-5.244,4.095-11.084,6.527-17.722,7.565c-11.247,1.76-21.783-1.638-32.443-3.946c-24.622-5.331-47.867-0.599-69.63,10.697
		c-7.477,3.881-14.442,8.033-22.834,9.67c-6.689,1.305-12.755,4.303-17.675,10.101c4.689,0.264,8.758,0.513,12.83,0.707
		c0.839,0.04,2.297,0.118,2.44-0.238c2.143-5.297,6.835-3.207,10.446-3.435c6.915-0.436,13.707,0.937,20.086,3.602
		c21.631,9.04,44.939,12.06,67.176,18.906c2.615,0.805,5.288,1.432,7.95,2.078c2.615,0.635,5.25,1.189,7.877,1.779
		c-16.22-6.254-31.897-13.8-49.114-16.747c-5.809-0.995-11.379-2.889-15.853-7.127c1.491-1.504,2.933,1.214,4.436-0.679
		c-9.974-4.541-20.98-4.875-30.983-8.784c4.916-0.982,9.808,1.31,14.87,0.14c-0.973-1.551-2.87-1.226-3.35-2.807
		c1.128-1.581,3.653-1.581,4.38-3.869c-1.291-0.248-2.422-0.466-3.332-0.641c9.462-2.67,19.015-5.872,29.403-4.593
		c-0.549-1.44-2.221-0.385-2.332-2.043c14.568-1.153,28.377,2.195,41.657,7.42c16.9,6.649,33.843,13.069,51.402,17.776
		C707.416,739.333,712.774,740.94,718.419,741.133z"/>
	<path style="fill:none;" d="M857.771,432.494c-2.745-3.101-6.495-5.548-10.053-4.657c-6.838,1.712-13.764,3.594-19.997,7.357
		c4.966-1.362,9.994-2.535,14.882-4.136C847.911,429.319,852.852,430.084,857.771,432.494z"/>
	<path style="fill:none;" d="M757.748,792.525c-11.071,8.29-22.141,16.58-33.212,24.87
		C737.695,811.929,748.199,802.919,757.748,792.525z"/>
	<path style="fill:none;" d="M923.919,594.734c6.508-6.788,12.064-14.105,15.499-22.803c-3.018,3.505-5.817,7.157-8.309,11.008
		C928.598,586.82,924.51,589.73,923.919,594.734z"/>
	<path style="fill:none;" d="M902.329,599.329c0.206-3.854-1.179-8.039-5.811-9.16c-7.228-1.75-14.652-2.689-21.563-5.782
		c-0.197,0.781-0.428,1.159-0.329,1.402c0.385,0.943,0.801,1.889,1.336,2.754c6.318,10.197,9.63,21.507,12.184,33.079
		c1.369,6.204,0.898,6.815-5.186,8.319c5.904,2.54,9.095,0.688,8.926-5.383c-0.056-2.011-0.66-4.046-1.259-5.994
		c-2.128-6.935-3.276-13.999-2.895-21.257c0.07-1.337-0.638-3.176,1.675-3.904c2.11,4.387,0.597,9.631,3.095,14.57
		c1.719-5.778-1.02-11.399,2.886-16.096c0,8.309,0,16.618,0,24.927c0.581-3.245,0.553-6.477,0.594-9.708
		c0.017-1.374,0.086-3.061,1.921-3.007c1.672,0.049,1.186,1.758,1.392,2.845c1.049,5.542,1.92,11.124,3.183,16.616
		c0.715,3.107,1.501,6.368,5.169,9.673C902.669,621.455,901.727,610.56,902.329,599.329z"/>
	<path style="fill:none;" d="M872.793,584.221c-0.726-3.498-2.729-6.104-6.047-7.036c-5.356-1.503-9.116-5.178-13.158-8.56
		c-1.194-0.999-2.187-2.452-4.473-2.685c2.117,6.053,4.069,11.632,6.224,17.793c1.535-3.203-0.933-5.393,0.252-8.393
		c3.692,7.654,4.798,15.195,4.101,23.209c4.441-5.327,5.378-11.62,4.559-19.661c7.368,9.339,6.246,19.047,6.601,29.342
		c3.281-4.422,3.991-2.057,4.322,0.654c0.343,2.812,0.442,5.654,0.7,9.21c2.944-2.659,2.88-5.464,2.302-8.293
		C876.43,601.265,874.563,592.753,872.793,584.221z"/>
	<path style="fill:none;" d="M795.864,733.716c4.447-3.909,8.396-8.195,10.71-13.661
		C803.439,724.987,797.683,727.883,795.864,733.716z"/>
	<path style="fill:none;" d="M840.946,557.282c-0.071,2.394,0.715,4.114,1.193,5.915c0.873,3.297,1.926,6.596,1.463,10.089
		c-0.11,0.83-0.254,1.78-1.454,1.697c-0.797-0.055-1.398-0.631-1.112-1.336c2.07-5.103-1.192-6.51-4.963-8.608
		c-4.655-2.589-8.643-6.377-12.92-9.646c2.12,3.628,5.084,6.376,7.526,9.529c2.736,3.53-0.077,7.649,0.328,11.511
		c2.693-1.432,1.73-4.784,3.934-6.794c1.817,3.73,1.031,6.986-0.291,10.179c-2.609,6.304-7.561,10.409-13.096,14.049
		c-9.468,6.229-20.018,10.318-29.961,15.59c18.701-5.156,36.04-12.846,49.927-27.17c-2.288,6.735-4.667,13.302-8.123,19.529
		c1.226-1.107,2.452-2.214,4.596-4.15c-3.442,9.303-10.313,14.135-16.287,19.756c6.542-2.752,11.329-7.788,16.338-12.535
		c-3.25,6.264-8.869,10.218-15.426,15.095c7.864-1.697,12.299-5.946,17.191-9.719c-2.603,3.057-5.207,6.114-8.28,9.723
		c4.486-1.374,6.776-4.413,9.844-6.974c0.22,3.269-2.939,4.443-3.194,7.484c3.849-2.17,4.158-6.226,6.348-9.045
		c-1.166,9.819-7.052,17.558-12.129,26.43c3.1-0.82,4.342-2.75,5.835-4.245c1.409-1.412,2.559-3.083,3.823-4.639
		c-5.02,10.024-13.706,16.277-22.708,22.244c8.161-1.095,14.316-6.317,21.347-9.636c-2.939,5.333-9.209,6.733-13.103,10.966
		c6.651-1.846,11.643-6.158,16.47-10.721c-2.864,7.485-14.768,15.98-22.549,16.332c-4.426,0.2-8.993-0.724-13.265,1.688
		c8.364,0.588,16.728,1.177,25.37,1.784c-7.412,2.232-14.593,0.71-21.701,0.226c-7.157-0.487-14.309-1.456-21.29-3.316
		c-6.724-1.791-13.462-3.527-20.194-5.287c8.859,4.361,18.01,7.603,27.669,9.239c12.134,2.055,24.458,3.144,36.09,7.683
		c8.104,3.163,8.917,2.575,10.763-6.207c5.171-24.603,6.281-49.588,7.112-74.61c0.306-9.222-2.856-17.513-6.365-25.702
		C844.686,561.306,842.563,559.402,840.946,557.282z"/>
	<path style="fill:none;" d="M616.008,734.083c-8.492-4.688-17.786-5.84-27.369-6.475
		C597.762,729.766,606.885,731.924,616.008,734.083z"/>
	<path style="fill:none;" d="M797.971,433.753c8.436-5.003,17.642-7.682,27.194-9.448
		C810.299,424.149,802.775,426.714,797.971,433.753z"/>
	<path style="fill:none;" d="M725.854,598.141c9.083,8.881,11.626,19.3,14.331,29.974
		C743.96,618.379,737.657,604.461,725.854,598.141z"/>
	<path style="fill:none;" d="M762.353,613.288c1.601,0.168,2.34-0.452,2.451-1.294c0.821-6.219,2.905-12.307,2.151-18.687
		c-0.224-1.896-0.232-4.042-2.371-5.057C767.48,596.846,763.856,605.033,762.353,613.288z"/>
	<path style="fill:none;" d="M735.096,588.22c9.905-4.517,19.501-6.673,29.033-0.426C758.843,579.96,741.461,579.877,735.096,588.22
		z"/>
	<path style="fill:none;" d="M775.243,577.284c-6.198-5.015-16.382-4.592-24.962,2.175
		C759.313,576.618,767.113,574.96,775.243,577.284z"/>
	<path style="fill:none;" d="M779.561,601.896c-2.338,2.968-4.093,6.353-6.627,9.181
		C777.535,609.731,778.905,606.069,779.561,601.896z"/>
	<path style="fill:none;" d="M668.084,817.883c-8.575-7.906-17.15-15.811-25.724-23.717
		C649.098,804.128,657.233,812.525,668.084,817.883z"/>
	<path style="fill:none;" d="M638.703,782.753c-6.566-6.137-13.056-12.367-20.746-17.153
		C624.165,772.167,630.883,778.123,638.703,782.753z"/>
	<path style="fill:none;" d="M763.631,681.719c-4.76,2.757-9.519,5.515-14.279,8.272
		C755.221,689.058,760.082,686.411,763.631,681.719z"/>
	<path style="fill:none;" d="M738.666,685.146c4.172-2.449,8.345-4.899,12.518-7.348
		C746.159,678.806,741.922,681.145,738.666,685.146z"/>
	<path style="fill:none;" d="M746.718,668.785c0.753-0.343,1.659-0.763,1.17-1.883c-0.572-1.309-1.565-1.109-2.524-0.511
		c-3.324,2.069-6.627,4.172-9.938,6.262c0.206,0.299,0.411,0.598,0.616,0.897C739.602,671.967,743.171,670.4,746.718,668.785z"/>
	<path style="fill:none;" d="M752.651,651.402c4.885-6.15,9.656-12.415,12.146-20.097c-1.528,2.123-3.056,4.246-4.584,6.37
		c1.947-6.883,7.006-12.001,10.044-18.253c-2.879,1.447-3.414,4.961-6.469,6.447c0.146-3.245,3.109-5.183,3.699-8.238
		c-2.647-0.248-3.853,1.076-4.925,2.963c-4.377,7.706-8.855,15.355-13.307,23.018c-1.276,2.195-1.717,4.461-0.599,6.838
		C749.574,652.406,751.245,653.172,752.651,651.402z"/>
	<path d="M955.952,520.497c-0.047-0.093-0.073-0.181-0.124-0.275c-0.027-0.016-0.05-0.036-0.076-0.052
		c-0.021,0.064-0.043,0.117-0.063,0.185C955.783,520.401,955.863,520.45,955.952,520.497z"/>
	<path d="M1078.547,738.56c-0.753-1.539-1.533-3.067-2.378-4.557c-19.861-35.023-39.589-70.123-59.652-105.03
		c-12.806-22.282-26.081-44.296-39.215-66.388c-2.178-3.664-3.658-6.997-1.213-11.331c1.466-2.6,1.893-5.928,0.506-8.971
		c-2.554-5.602-7.338-9.947-9.077-16.04c-0.195-0.683-1.145-1.531-1.839-1.626c-2.922-0.405-4.177-2.459-5.682-4.638
		c-1.118-1.619-3.124-3.29-4.245,0.191c0.027,0.016,0.049,0.036,0.076,0.052c0.051,0.095,0.077,0.182,0.124,0.275
		c3.937,2.061,3.483,5.137,1.134,7.992c-2.192,2.663-5.02,4.803-8.324,7.877c0.789-3.922,3.091-5.543,5.006-7.222
		c2.877-2.523,3.911-5.203,2.184-8.648c-0.09-0.047-0.169-0.096-0.263-0.142c0.02-0.068,0.042-0.121,0.063-0.185
		c-4.285-2.574-6.463-6.947-8.911-10.954c-26.63-43.583-54.654-86.303-80.376-130.451c-24.974-42.862-54.568-82.638-83.617-122.725
		c-24.932-34.405-50.864-68.088-76.529-101.957c-9.105-12.015-18.729-23.638-28.118-35.438c-1.886-2.371-3.822-5.304-7.183-2.343
		c-3.163,2.787,0.198,4.879,1.446,6.947c1.675,2.776,3.648,5.4,5.722,7.899c0.891,1.074,1.257,1.896,1.168,2.605L839.67,358.559
		c1.007,0.262,1.819,1.103,2.738,2.528c8.452,13.106,16.986,26.161,25.627,39.143c26.406,39.673,51.011,80.491,76.709,120.614
		c2.079,3.246,4.2,6.497-0.936,9.172c-1.579,0.822-1.85,2.812-2.191,4.497c-1.263,6.251-0.876,12.369,2.392,17.94
		c1.917,3.267,1.614,5.991-0.37,9.021c-5.734,8.756-11.696,17.336-18.632,25.194c-1.209,1.369-1.937,2.678-4.836,1.804
		c-5.123-1.543-8.615,2.418-8.191,8.01c0.116,1.535,0.174,3.088,0.087,4.623c-0.501,8.833,1.521,16.993,6.241,24.506
		c0.811,1.291,2.174,2.592,1.415,4.609c-7.152-6.654-11.07-20.199-10.682-36.432c-2.037-1.034-5.055,1.222-6.429-1.854
		c-1.54-3.448-4.649-4.211-7.858-5.061c-5.605-1.484-11.746-1.463-16.701-4.8c-10.059-6.773-20.567-12.874-29.981-20.628
		c-8.488-6.991-8.659-6.787-3.982-16.868c0.577-1.243,1.154-2.488,1.794-3.698c6.724-12.712,6.728-12.711,21.051-11.263
		c0.682,0.069,1.367,0.125,2.045,0.224c3.437,0.505,7.66,1.419,9.195-2.35c1.922-4.721,2.445-10.017,3.487-15.082
		c0.063-0.304-0.662-0.735-0.955-1.153c-3.918-5.584-3.613-7.252,2.151-11.07c2.122-1.406,4.273-2.491,1.43-5.396
		c-1.057-1.08-1.211-2.626,0.573-4.324c3.998-3.805,3.483-6.107-1.481-8.988c-4.596-2.667-7.704-6.262-7.988-11.749
		c-0.342-6.639,0.936-13.376-1.56-19.949c3.041,3.277,4.225,7.249,5.69,11.091c0.046-7.408-1.238-14.186-8.402-18.333
		c-1.698-0.983-2.487-2.372-2.524-4.599c-0.122-7.476-9.293-17.103-16.897-17.035c-4.495,0.04-7.885-1.575-11.404-3.714
		c-6.456-3.924-13.337-4.875-20.762-3.326c-7.026,1.465-12.618,5.995-19.24,8.274c5.257,0.17,9.352-2.974,13.876-4.803
		c9.633-3.894,18.724-3.573,27.225,2.746c2.785,2.07,5.745,2.609,9.162,2.398c4.941-0.305,8.455,2.217,10.231,6.564
		c-14.072-4.02-27.732-10.165-43.332-7.125c-20.023,3.902-36.911,10.659-38.949,18.773c9.597-8.077,13.372-10.272,19.576-11.019
		c-10.091,6.542-16.063,16.149-23.427,24.392c-8.855,9.914-7.899,28.992,0.98,37.906c-5.347-10.79-8.137-21.721-1.844-33.161
		c0.491-0.893,0.899-1.832,1.406-2.714c0.248-0.431,0.636-0.78,1.342-1.098c-3.122,10.878-3.187,21.717-0.68,32.634
		c0.593,2.584,2.406,4.939,1.645,7.808c1.005,1.535,1.935,3.199,2.922,4.64c2.215,3.231,0.876,4.589-1.58,6.538
		c-3.044,2.417-3.7-0.838-5.297-1.795c-0.827-0.496-1.388-1.562-2.784-0.611c0.082,2.29,2.094,4.472,1.078,7.394
		c-4.341-2.983-8.348-5.861-12.482-8.541c-4.231-2.744-9.106-4.057-13.907-5.212c-7.866-1.892-13.394-6.506-17.561-13.201
		c-1.929-3.099-3.994-6.159-7.206-8.255c0.944,2.55,2.243,4.859,3.58,7.146c1.37,2.343,2.777,4.665,4.168,6.995
		c-2.863-1.657-5.098-3.759-7.354-5.837c-8.719-8.03-14.9-8.844-24.953-2.673c-2.836,1.741-5.551,2.277-8.695,2.179
		c-4.156-0.13-8.346-0.156-12.505,2.801c14.32-3.022,26.468,0.096,37.145,9.066c-6.061-0.953-12.009-2.497-18.168-2.592
		c-6.223-0.095-11.951,1.634-17.356,4.608c5.625-0.853,10.999-3.276,18.09-2.038c-8.353,1.579-13.734,6.108-18.977,10.771
		c-3.578,3.182-7.207,4.65-12.148,3.187c-2.717-0.805-5.703-2.276-8.737-1.183c-0.097,2.045,2.849,1.492,2.226,4.621
		c-4.156-4.589-7.203-0.595-10.745,0.652c-6.966,2.452-13.235,6.037-18.816,10.862c7.09-1.754,12.985-6.831,20.527-7.141
		c0.869,2.077-1.731,3.002-1.06,5.389c2.899-5.138,7.4-5.474,12.193-5.749c10.247-0.588,20.3,3.982,30.65,0.662
		c-2.882,1.823-6.031,2.794-8.628,4.571c-2.624,1.795-5.689,0.769-7.874,1.598c-15.026,5.699-29.998,11.664-44.506,18.556
		c-8.511,4.043-12.971,12.143-15.266,21.184c10.518-17.879,23.887-26.705,38.583-23.818c-13.513,4.094-24.911,9.027-25.063,24.683
		c3.163-13.101,13.152-17.779,25.473-20.738c-3.726,5.246-6.244,10.363-6.902,16.24c3.279-5.933,5.252-12.797,12.703-16.799
		c-1.612,5.506-3.024,10.122-2.375,15.762c4.202-13.513,10.527-18.99,21.322-18.01c-7.2,4.929-10.761,11.566-11.411,19.283
		c-0.548,6.502-4.336,8.101-9.679,8.67c-4.001,0.426-7.843-0.284-11.692-1.216c-1.681-0.407-3.171-1.885-5.379-1.014
		c3.833,2.542,7.871,3.829,12.108,4.576c4.113,0.725,8.234-0.714,12.624-0.47c-4.074,7.277-8.259,9.51-15.816,8.229
		c-9.325-1.581-18.659-2.448-28.119-1.767c-7.93,0.571-14.178,4.333-16.179,10.079c1.042-0.947,1.903-1.776,2.811-2.549
		c8.848-7.523,13.735-7.124,20.876,1.813c4.75,5.945,10.96,8.07,18.273,6.87c9.553-1.568,17.343-6.331,23.088-14.105
		c1.793-2.426,3.002-2.864,5.72-1.229c6.352,3.822,11.955,3.155,17.08-2.304c3.671-3.91,8.728-6.36,11.379-11.374
		c1.008-1.907,2.886-3.509,6.245-5.032c-3.746,4.5-6.047,8.328-7.335,12.609c-2.644,8.783-6.223,16.747-15.734,20.263
		c9.243-1.288,14.728-7.163,19.063-14.715c6.167-10.742,23.412-19.315,35.772-18.003c-4.56,2.947-10.539,2.508-14.556,7.1
		c8.487-1.821,16.973-3.642,26.38-5.66c-1.12,1.218-1.746,1.582-1.759,1.967c-0.053,1.59,0.789,0.305,1.044,0.19
		c4.841-2.17,9.74-4.238,14.138-7.269c4.162-2.869,7.829-6.242,9.568-11.12c2.555-7.172,5.433-14.307,3.656-22.249
		c-0.401-1.792-0.201-3.763,1.088-5.66c4.786,3.533,7.376,0.906,9.312-4.402c5.254,7.551,11.383,12.677,20.266,13.611
		c2.71,0.285,1.226,2.448,0.712,3.586c-3.551,7.868-8.394,14.514-16.999,17.572c-2.556,0.909-5.417,1.281-7.487,3.252
		c-10.813,10.296-22.054,20.05-36.262,25.404c-10.353,3.901-18.208,13.727-30.593,12.832c-1.069-0.077-2.351,0.619-3.293,1.293
		c-5.48,3.924-10.788,8.11-17.927,10.202c8.37,4.876,17.864,19.691,18.318,28.446c-2.326-4.11-4.262-7.718-6.375-11.218
		c-2.915-4.827-5.436-9.99-9.918-13.643c-3.123-2.546-3.655-2.301-4.956,1.528c-0.458,1.35-1.712,1.526-2.742,2.059
		c-7.78,4.024-15.127,8.755-22.29,13.771c-9.542,6.682-18.934,13.583-28.587,20.099c-5.668,3.826-11.684,4.535-17.773,0.353
		c-2.526-1.735-5.406-2.96-8.141-4.385c-2.827-1.472-5.473-1.198-8.528,1.013c3.216,1.75,6.054,3.161,8.743,4.814
		c1.268,0.78,2.938,2.061,2.043,3.681c-0.876,1.586-2.479,0.172-3.658-0.264c-6.282-2.322-12.764-2.349-19.293-1.76
		c-1.316,0.119-3.1,0.312-2.994,2.106c0.082,1.399,1.711,1.424,2.871,1.663c5.2,1.067,10.417,2.06,15.589,3.249
		c1.163,0.268,3.178,0.425,2.723,2.331c-0.318,1.331-2.03,1.156-3.153,1.038c-7.39-0.773-14.705,0.676-22.067,0.667
		c-1.412-0.002-3.495-0.602-3.479,1.787c0.015,2.164,2.03,1.948,3.493,2.085c6.82,0.636,13.65,1.169,20.467,1.842
		c2.154,0.213,4.521,0.249,5.797,2.914c-0.572,0.349-1.07,0.845-1.651,0.979c-8.503,1.963-17.017,3.879-25.53,5.802
		c-1.427,0.322-3.497-0.004-3.447,2.185c0.059,2.562,2.309,2.135,3.889,2.065c2.905-0.129,5.805-0.479,8.693-0.842
		c6.458-0.81,12.905-1.714,19.365-2.509c1.348-0.166,3.19-0.261,3.553,1.285c0.502,2.138-1.688,1.541-2.802,1.96
		c-4.166,1.568-8.362,3.058-12.515,4.659c-1.683,0.649-4.2,1.05-3.548,3.535c0.575,2.19,2.952,1.302,4.46,1.13
		c13.654-1.558,26.394-5.211,37.115-14.604c10.333-9.052,21.693-16.721,33.986-23.003c11.316-5.782,22.904-10.885,34.924-14.974
		c2.122-0.722,5.278-2.381,6.626,0.207c3.438,6.596,9.772,4.396,14.939,5.669c2.216,0.546,2.845-0.392,2.593-2.851
		c-0.795-7.762-2.735-15.064-6.478-21.978c-3.5-6.467-8.102-12.122-12.311-18.072c-0.063,0.004-0.121,0.001-0.186,0.007
		c0.037-0.058,0.078-0.101,0.116-0.157c-0.308-2.417,2.874-5.165,5.906-4.744c2.081,0.289,4.083,1.148,6.061,2.064
		c-4.139,0.597-8.834-1.911-11.967,2.68c0.002,0.018,0.001,0.037,0.003,0.055c0.022,0.031,0.045,0.063,0.068,0.094
		c3.658-0.237,4.498,3.168,6.052,5.243c7.733,10.32,14.67,21.072,15.539,36.263c3.572-11.095,12.54-14.27,20.69-18.71
		c0.602,2.463-0.679,4.555-1.567,6.654c-2.617,6.186-6.48,11.673-10.043,17.319c-1.886,2.99-2.365,5.871-0.902,9.219
		c2.24,5.124-0.509,12.528-5.839,14.436c-16.784,6.011-31.395,15.408-43.732,28.114c-11.268,11.606-24.811,13.48-39.767,10.922
		c-2.196-0.376-4.409-0.666-6.593-1.101c-14.798-2.945-29.743-3.59-44.447-0.348c-13.122,2.893-26.887,4.363-38.402,12.274
		c-4.881,3.353-10.024,5.805-15.684,7.449c-6.609,1.919-13.102,4.351-18.344,8.962c-4.523,3.978-9.489,6.557-15.457,7.493
		c-2.794,0.438-5.396,1.733-7.35,4.313c10.224-2.998,20.409-4.765,30.748-5.704c2.611-0.237,5.138,0.18,7.585,1.031
		c11.001,3.829,22.01,7.66,32.62,12.491c5.387,2.453,10.217,5.79,13.848,10.693c-7.03-4.667-16.076-3.766-22.976-8.684
		c-1.912-1.362-4.345-2.001-6.554-2.938c-5.175-2.195-10.536-3.731-16.094-4.718c2.186,2.361,4.439,4.459,6.88,6.308
		c6.674,5.056,10.22,11.92,11.435,19.997c2.337,15.538,9.534,28.366,20.997,38.967c16.605,15.357,26.439,34.777,33.722,56.983
		c-1.747-2.789-2.99-4.614-4.075-6.53c-10.154-17.921-21.116-35.201-35.275-50.398c-9.18-9.853-16.891-21.233-18.072-35.051
		c-1.879-21.993-34.348-40.024-55.183-30.098c-4.464,2.127-5.436,6.099-1.991,9.763c2.282,2.428,5.284,3.756,8.337,4.944
		c8.75,3.406,16.717,7.874,22.393,15.717c4.758,6.575,10.425,12.251,17.287,16.693c1.874,1.213,3.39,2.873,4.375,4.956
		c5.069,10.723,13.839,17.604,23.904,23.221c3.862,2.155,7.321,4.866,8.191,10.218c-16.099,0-31.839,0.03-47.578-0.011
		c-9.602-0.025-18.578-2.033-26.852-7.365c-12.283-7.916-20.72-5.585-28.038,7.192c-6.492,11.335-13.531,22.225-23.066,31.361
		c-6.059,5.805-9.18,13.247-9.567,21.593c-0.273,5.875-0.128,11.721-1.172,17.592c-0.615,3.455,1.332,6.079,5.492,6.549
		c5.152,0.582,6.688-3.5,8.927-6.513c18.748-25.233,43.251-38.983,75.214-37.547c24.013,1.079,47.713,4.956,71.419,8.682
		c4.184,0.657,7.787,2.325,10.554,5.747c3.08,3.809,7.244,6.214,11.629,8.273c13.414,6.3,27.733,8.435,42.328,9.817
		c10.481,0.992,19.306-1.826,26.804-9.001c4.971-4.758,10.532-8.758,15.901-13.018c12.593-9.991,24.477-20.801,38.58-28.912
		c18.047-10.378,36.68-13.728,57.165-9.451c9.092,1.898,16.087,5.497,20.463,13.646c2.152,4.008,5.463,5.146,9.746,5.221
		c18.511,0.326,33.341-7.798,46.509-19.886c0.897-0.823,2.02-1.75,1.115-3.001c-0.821-1.134-2.192-0.717-3.308-0.208
		c-2.73,1.246-5.431,2.554-9.247,4.359c2.46-2.655,5.071-3.493,5.631-6.371c-1.928,0.314-2.83,2.52-4.955,1.521
		c2.892-5.078,11.025-6.95,9.212-15.24c-4.448,3.169-8.417,5.653-12.913,6.721c1.385-5.535,4.204-10.047,8.326-13.947
		c-16.328,5.831-32.472,11.734-47.759,19.744c6.309,0.202,12.01-2.363,18.115-2.844c-11.73,6.321-23.897,10.762-39.084,9.081
		c23.33-8.177,42.332-21.363,62.312-32.757c-2.002,0.256-4.004,0.512-7.329,0.938c3.075-1.922,4.967-3.105,6.859-4.287
		c-7.876,0.7-15.352,2.411-22.636,4.916c-17.708,6.088-34.36,14.595-51.282,22.479c-7.474,3.482-15.258,5.625-23.475,6.385
		c27.274-14.066,54.485-28.065,82.622-40.244c-16.283-2.941-30.372,5.944-45.777,7.498c6.17-3.815,12.475-7.199,18.766-10.612
		c0.856-0.465,1.637-1.069,2.453-1.608c-3.556-2.988,0.861-2.719,1.672-3.653c1.197-1.378,2.939-2.282,4.449-3.388
		c-0.221-0.318-0.442-0.637-0.662-0.955c-3.248,1.887-6.495,3.775-9.743,5.662c1.988-4.531,6.405-6.027,10.338-9.932
		c-6.493,2.464-11.402,5.925-17.803,7.124c3.439-4.481,8.254-6.592,12.642-11.48c-7.233,1.249-12.822,2.601-17.7,6.145
		c-12.482,9.068-23.518,19.973-36.354,28.59c-0.995,0.668-1.992,1.339-3.029,1.937c-0.992,0.571-2.038,1.047-3.06,1.564
		c13.562-13.7,30.296-23.836,40.911-41.227c-3.099,2.602-5.68,4.768-8.899,7.471c0.832-3.119,3.277-4.252,3.224-6.967
		c-2.459,1.247-3.364,4.302-7.591,5.445c6.992-7.384,12.084-14.278,15.141-22.464c-4.32,5.363-8.754,10.647-13.915,15.101
		c-9.428,8.135-17.115,17.718-24.597,27.546c-17.114,22.48-33.168,45.807-53.798,65.44c-7.108,6.764-14.064,13.207-23.204,17.444
		c-17.472,8.1-35.745,8.698-54.365,7.686c-1.492-0.081-3.013-0.189-3.586-1.924c-0.051-0.017-0.102-0.026-0.153-0.043
		c-0.049-0.064-0.093-0.131-0.142-0.195c-4.892-1.483-7.371-5.677-9.676-9.585c-7.475-12.678-14.618-25.554-21.754-38.429
		c-4.963-8.954-12.373-15.842-19.591-23.091c16.35,17.619,26.592,38.361,32.868,62.811c-3.295-4.986-4.881-9.2-6.315-13.413
		c-7.843-23.022-21.783-41.965-38.866-58.886c-5.616-5.563-10.39-11.761-13.775-19.032c-3.428-7.363-7.301-14.518-11.6-22.987
		c5.736,3.931,8.651,8.436,10.795,13.344c5.503,12.592,14.215,22.289,25.065,30.625c15.044,11.558,26.121,26.545,34.445,43.539
		c3.012,6.15,5.75,12.436,8.519,18.702c2.605,5.894,5.982,11.302,9.884,16.402c0.082,0.025,0.152,0.064,0.236,0.087
		c0.016,0.057,0.041,0.097,0.059,0.151c2.567,0.862,5.198,1.083,7.911,1.101c11.723,0.077,22.643-3.374,33.442-7.397
		c15.726-5.859,27.325-17.429,39.4-28.381c-16.348,9.286-30.018,23.403-49.431,26.96c1.16-1.056,2.524-1.731,3.864-2.451
		c24.556-13.194,48.113-27.858,67.16-48.573c11.948-12.994,23.831-26.041,36.091-38.744c6.672-6.914,12.985-14.158,18.178-22.276
		c2.92-4.565,6.225-9.009,6.979-15.434c-1.475,1.114-1.282,3.093-2.872,2.996c-0.624-1.179,1.015-2.516-0.452-3.839
		c-1.492,2.013-2.271,4.392-5.126,5.805c1.272-3.451,2.351-6.378,3.43-9.305c-7.258,7.461-14.774,14.306-23.551,19.708
		c5.429-7.327,11.231-14.269,16.977-21.258c7.087-8.622,7.065-8.638,13.803,0.64c1.566,2.156,3.683,4.492,6.266,3.636
		c5.427-1.801,6.527,1.607,7.876,5.328c2.012,5.551,5.493,9.728,11.807,9.846c4.712,0.088,8.273,0.71,9.158,6.329
		c0.301,1.912,2.55,3.11,4.281,4.26c7.99,5.307,16.17,10.355,23.895,16.023c7.841,5.753,15.988,11.571,15.548,23.109
		c-0.062,1.623,1.166,3.259,1.322,4.932c0.656,7.062,1.719,14.127,0.994,21.536c1.945-0.503,6.581,1.746,5.008-3.504
		c-2.804-9.361-2.079-19.259-5.238-28.582c-1.295-3.822-2.395-7.293-5.313-10.195c-8.836-8.785-19.113-15.578-29.765-21.851
		c-4.111-2.42-7.574-5.281-9.164-9.951c-1.035-3.042-3.452-4.326-6.371-4.264c-7.444,0.156-11.724-3.642-14.127-10.35
		c-1.433-4.001-4.565-6.279-8.775-5.518c-2.811,0.508-4.177-0.585-5.521-2.484c-1.384-1.956-2.672-3.984-4.117-5.893
		c-2.184-2.887-2.064-5.131,0.285-8.294c11.177-15.05,21.937-30.401,23.155-50.097c0.065-1.055,0.379-2.027,1.293-2.684
		c3.668-2.638,4.604-6.668,5.402-10.733c2.281-11.617,4.044-23.319,4.735-35.136c0.231-3.956,1.724-4.991,5.423-4.421
		c5.165,0.796,9.832,2.644,14.448,5.074c13.908,7.321,28.997,9.193,44.388,8.038c4.599-0.345,10.019-1.535,11.602-7.513
		c-0.018,0.006-0.031,0.016-0.05,0.022c-0.025-0.009-0.044-0.023-0.068-0.032c-2.335,1.29-3.388-0.473-4.212-2.101
		c-5.147-10.158-9.17-20.676-9.791-32.214c-0.046-0.852-0.018-1.717,0.074-2.566c0.193-1.79,1.187-2.833,3.034-2.787
		c1.97,0.049,1.896,1.589,1.994,2.96c0.306,4.275,0.634,8.548,0.911,12.825c0.391,6.011,1.246,11.938,3.412,17.591
		c0.949,2.478,1.657,5.215,4.578,6.292c0.049-0.027,0.091-0.036,0.142-0.066c-0.007,0.027-0.017,0.049-0.024,0.076
		c2.514-0.887,3.34-3.269,4.49-5.227c4.946-8.419,9.767-16.911,14.593-25.399c6.181-10.87,11.138-22.393,17.701-33.068
		c1.761-2.864,2.633-2.825,4.335,0.06c7.835,13.28,15.904,26.423,23.776,39.682c25.901,43.62,50.319,88.058,73.268,133.302
		c1.006,1.984,1.9,4.076,3.754,5.455c2.493,1.855,5.232,1.884,7.641,0.116C1080.797,742.833,1079.535,740.58,1078.547,738.56z
		 M707.05,160.185c-6.971-9.048-13.942-18.097-20.913-27.145c0.367-0.29,0.735-0.581,1.102-0.871
		c6.978,9.036,13.957,18.072,20.935,27.108C707.799,159.579,707.424,159.882,707.05,160.185z M733.866,194.634
		c29.772,36.094,56.501,74.495,82.815,113.198C788.91,270.25,762.205,231.889,733.866,194.634z M877.306,521.592
		c0.767-4.222-0.269-8.278-1.674-12.976C880.62,512.983,879.083,517.276,877.306,521.592z M873.664,470.455
		c0.732,4.308,2.268,8.279,5.76,11.093c2.425,1.955,4.069,3.645,0.943,6.401c-0.629,0.555-0.544,1.921-0.788,2.913
		c-0.612-5.387-2.235-10.193-7.531-13.027c-0.756-0.405-1.524-0.733-0.625-1.804c2.363-2.814-0.166-5.433-0.456-8.136
		c-0.094-0.874-2.477-1.693-0.153-2.565c1.658-0.622,2.549,0.322,2.614,2.063C873.466,468.416,873.494,469.45,873.664,470.455z
		 M872.776,461.492c-3.369-6.171-2.898-12.825-5.869-18.414C872.101,447.013,874.084,453.325,872.776,461.492z M625.296,579.113
		c10.959-1.291,20.531,3.775,31.101,4.845C645.029,593.996,637,592.714,625.296,579.113z M694.59,484.844
		c9.802-6.644,16.024-6.218,23.683,0.885c4.081,3.784,8.385,7.283,14.747,10.265C718.402,495.722,708.092,486.499,694.59,484.844z
		 M655.25,540.714c3.617-3.488,8.149-5.528,12.77-7.601C664.109,536.084,660.19,539.252,655.25,540.714z M667.495,540.857
		c5.546-7.689,23.12-12.094,32.547-6.876C688.539,532.773,678.412,538.073,667.495,540.857z M675.211,576.733
		c7.386,0.148,11.888-3.133,16.274-6.667C685.888,577.85,681.512,579.936,675.211,576.733z M684.823,567.058
		c2.956-0.502,3.591-3.356,7.226-3.825c-3.927,5.066-7.175,9.333-12.659,11.202c-1.594,0.543-3.43,0.855-4.796-0.664
		c-1.48-1.647-0.501-3.098,0.434-4.622c0.796-1.297,1.477-2.705,1.96-4.147c4.48-13.374,21.324-21.51,35.419-16.585
		C702.043,553.009,692.111,557.604,684.823,567.058z M677.585,552.959c9.497-16.026,24.339-15.104,46.305-6.383
		C707.979,545.168,691.64,540.837,677.585,552.959z M703.587,528.475c6.48,1.817,12.96,3.634,19.709,5.527
		C718.697,535.273,710.918,533.23,703.587,528.475z M696.695,517.993c11.903-3.484,22.546,1.781,33.527,4.692
		C718.6,524.22,708.15,517.623,696.695,517.993z M724.974,510.802c-2.168-1.378-4.307-2.802-6.455-4.212
		c-14.813-9.726-26.923-6.31-40.709,6.625c0.007-0.003,0.015-0.005,0.022-0.008c0.043,0.021,0.085,0.034,0.127,0.054
		c6.981-1.564,13.797-4.328,21.245-2.452c-6.975,1.62-13.576,6.077-21.245,2.452c-0.09,0.02-0.179,0.042-0.268,0.062
		c0.04-0.037,0.079-0.07,0.119-0.108c-1.181,0.46-2.311,0.643-3.413-0.504c6.398-6.106,14.018-10.096,22.346-12.638
		c7.351-2.243,14.113,0.59,20.738,3.424c4.06,1.736,7.497,4.762,11.895,5.82c-0.448-0.501-1.088-0.933-1.302-1.52
		c-0.389-1.069,0.68-1.071,1.138-0.894c9.459,3.642,19.735,0.936,29.281,3.803c1.42,0.427,3.017,0.535,4.882,3.122
		c-10.917-3.03-21.174-1.445-31.152-3.492c4.741,4.174,11.179,2.015,17.196,4.644C740.321,515.951,732.298,515.455,724.974,510.802z
		 M750.848,542.662c3.364-3.366,7.821-4.659,12.098-6.35C759.473,539.499,755.281,541.321,750.848,542.662z M755.651,553.252
		c5.482-4.683,11.545-8.68,16.675-13.891C769.788,547.557,763.333,551.146,755.651,553.252z M728.63,634.786
		c-6.258-9.387-10.677-19.821-14.87-30.372C720.043,613.815,725.357,623.715,728.63,634.786z M557.121,776.1
		c1.734,5.123,3.386,10.284,5.838,15.113c2.485,4.894,5.888,9.171,9.209,13.511c3.436,4.491,8.604,7.271,12.465,12.998
		C567.267,808.249,558.001,792.435,557.121,776.1z M544.228,833.388c15.454,0,30.907,0,46.361,0
		C575.155,835.354,559.7,835.277,544.228,833.388z M876.874,839.533c-8.732,3.485-17.601,5.949-26.677,7.655
		c-5.559,1.045-9.394-2.044-13.112-6.028C850.512,843.071,863.697,841.116,876.874,839.533z M579.111,792.216
		c2.279,3.46,4.576,6.915,7.69,9.588c11.972,10.277,20.907,23.099,29.871,35.822c6.362,9.03,8.923,19.95,13.075,30.071
		c0.96,2.34,1.774,4.741,2.355,7.294c-2.267-1.768-3.351-4.318-4.606-6.792c-5.107-10.075-8.057-21.189-14.462-30.62
		c-8.472-12.472-17.719-24.278-28.382-35.059c-7.884-7.972-12.255-18.169-14.208-29.263
		C573.394,779.54,575.222,786.311,579.111,792.216z M904.692,595.57c1.594-0.028,1.763,1.324,1.835,2.552
		c0.288,4.917,0.558,9.834,0.892,15.76c-2.919-5.544-2.954-10.583-4.237-15.299C902.867,597.429,902.536,595.607,904.692,595.57z
		 M836.965,560.492c-1.528-5.927,1.699-10.357,4.653-14.874C840.067,550.576,838.516,555.534,836.965,560.492z M847.718,427.837
		c3.558-0.891,7.308,1.556,10.053,4.657c-4.919-2.41-9.86-3.176-15.168-1.437c-4.888,1.601-9.916,2.774-14.882,4.136
		C833.954,431.43,840.88,429.549,847.718,427.837z M797.971,433.753c4.804-7.039,12.328-9.604,27.194-9.448
		C815.613,426.071,806.407,428.75,797.971,433.753z M775.243,577.284c-8.13-2.324-15.93-0.666-24.962,2.175
		C758.861,572.691,769.046,572.268,775.243,577.284z M779.561,601.896c-0.656,4.173-2.026,7.835-6.627,9.181
		C775.468,608.25,777.224,604.864,779.561,601.896z M740.185,628.115c-2.705-10.673-5.248-21.093-14.331-29.974
		C737.657,604.461,743.96,618.379,740.185,628.115z M735.096,588.22c6.365-8.343,23.747-8.26,29.033-0.426
		c0.13,0.085,0.26,0.155,0.391,0.243c0.025,0.071,0.041,0.142,0.065,0.213c2.14,1.015,2.148,3.162,2.371,5.057
		c0.754,6.38-1.33,12.468-2.151,18.687c-0.111,0.842-0.85,1.463-2.451,1.294c1.503-8.255,5.127-16.442,2.231-25.039
		c-0.068-0.032-0.119-0.074-0.191-0.104c-0.076-0.125-0.182-0.231-0.264-0.353C754.597,581.547,745.001,583.703,735.096,588.22z
		 M749.254,643.613c4.453-7.663,8.931-15.312,13.307-23.018c1.072-1.887,2.278-3.211,4.925-2.963
		c-0.589,3.054-3.552,4.993-3.699,8.238c3.055-1.486,3.59-5,6.469-6.447c-3.038,6.252-8.097,11.37-10.044,18.253
		c1.528-2.123,3.056-4.247,4.584-6.37c-2.49,7.682-7.261,13.947-12.146,20.097c-1.406,1.77-3.077,1.004-3.996-0.951
		C747.537,648.073,747.979,645.808,749.254,643.613z M745.363,666.391c0.96-0.597,1.952-0.798,2.524,0.511
		c0.49,1.12-0.417,1.54-1.17,1.883c-3.547,1.615-7.116,3.182-10.677,4.765c-0.205-0.299-0.411-0.598-0.616-0.897
		C738.736,670.563,742.039,668.461,745.363,666.391z M738.666,685.146c3.256-4.002,7.494-6.34,12.518-7.348
		C747.011,680.247,742.838,682.697,738.666,685.146z M763.631,681.719c-3.549,4.692-8.41,7.339-14.279,8.272
		C754.112,687.234,758.871,684.476,763.631,681.719z M617.957,765.6c7.691,4.786,14.18,11.016,20.746,17.153
		C630.883,778.123,624.165,772.167,617.957,765.6z M642.359,794.166c8.575,7.906,17.15,15.811,25.724,23.717
		C657.233,812.525,649.098,804.128,642.359,794.166z M644.664,824.211c9.513,5.805,18.782,12.039,28.823,16.922
		C662.177,838.465,653.269,831.605,644.664,824.211z M650.61,720.108c-13.28-5.224-27.089-8.573-41.657-7.42
		c0.11,1.658,1.783,0.603,2.332,2.043c-10.388-1.279-19.941,1.923-29.403,4.593c0.91,0.175,2.041,0.393,3.332,0.641
		c-0.727,2.288-3.252,2.288-4.38,3.869c0.48,1.581,2.377,1.257,3.35,2.807c-5.061,1.17-9.953-1.123-14.87-0.14
		c10.004,3.909,21.009,4.242,30.983,8.784c-1.503,1.893-2.945-0.824-4.436,0.679c4.475,4.238,10.044,6.132,15.853,7.127
		c17.217,2.947,32.894,10.493,49.114,16.747c-2.626-0.59-5.261-1.144-7.877-1.779c-2.662-0.646-5.334-1.273-7.95-2.078
		c-22.237-6.846-45.545-9.866-67.176-18.906c-6.379-2.665-13.171-4.038-20.086-3.602c-3.611,0.228-8.303-1.862-10.446,3.435
		c-0.144,0.356-1.602,0.278-2.44,0.238c-4.072-0.193-8.141-0.443-12.83-0.707c4.92-5.798,10.987-8.796,17.675-10.101
		c8.393-1.637,15.358-5.789,22.834-9.67c21.763-11.297,45.008-16.028,69.63-10.697c10.66,2.308,21.196,5.706,32.443,3.946
		c6.638-1.038,12.478-3.47,17.722-7.565c10.8-8.432,21.376-17.202,34.401-22.209c3.484-1.339,6.987-2.501,10.738-2.938
		c-12.426,5.497-22.997,13.857-34.016,21.549c11.699-4.493,21.403-13.016,33.726-16.249c-2.673,1.742-5.346,3.484-8.018,5.226
		c1.039,1.618-0.347,2.275-1.239,3.127c-4.623,4.613-10.239,7.884-15.605,11.481c-4.947,3.317-10.203,6.203-15.179,11.363
		c5.835-1.821,8.49-6.965,14.961-8.57c-8.204,6.735-15.305,12.452-21.729,18.968c-2.099,2.129-1.619,3.194,0.802,5.833
		c-11.866-5.312-21.457-12.394-33.116-14.779c11.674,7.827,22.621,16.637,37.526,18.513c7.811,0.983,15.278,4.71,22.838,7.466
		c-5.645-0.193-11.003-1.8-16.407-3.249C684.452,733.177,667.51,726.757,650.61,720.108z M616.008,734.083
		c-9.123-2.158-18.246-4.317-27.369-6.475C598.222,728.243,607.516,729.395,616.008,734.083z M801.823,763.489
		c-0.768,1.314-1.36,2.778-2.332,3.919c-18.478,21.682-37.759,42.584-61.007,59.319c-14.128,10.17-30.121,15.971-47.412,18.313
		c28.158-12.22,55.882-25.089,77.707-47.778c-2.914,2.033-5.827,4.065-8.741,6.098c-0.273-0.344-0.545-0.688-0.817-1.033
		C773.845,789.91,788.301,777.318,801.823,763.489z M724.536,817.396c11.071-8.29,22.141-16.58,33.212-24.87
		C748.199,802.919,737.695,811.929,724.536,817.396z M750.62,805.628c-7.476,7.089-15.838,13.104-24.839,18.239
		C733.474,817.042,741.741,810.997,750.62,805.628z M838.596,678.981c-0.908,3.312,1.628,8.962-5.57,8.018
		c-0.799-0.105-0.881,1.347-0.899,2.152c-0.433,19.48-12.554,33.089-24.496,46.177c-17.579,19.266-37.19,36.44-59.061,50.872
		c-8.318,5.489-17.124,9.83-26.738,12.342c22.119-13.504,42.771-28.721,61.113-46.909c16.731-16.591,31.663-34.637,42.982-55.438
		c1.38-2.535,2.283-5.344,3.242-8.084c0.297-0.848-0.091-2.891-0.44-2.57c-3.762,3.458-6.471-2.089-10.273-0.965
		c-2.451,0.724-4.144,1-5.385,3.453c-3.676,7.268-8.575,13.548-16.237,17.358c1.878-1.971,3.731-3.968,5.64-5.909
		c3.02-3.068,6.022-6.292,7.83-10.124c1.918-4.064,3.831-6.736,8.927-5.71c4.188,0.844,3.211-3.288,3.825-5.233
		c0.915-2.904-1.891-2.591-3.632-2.724c-16.352-1.251-32.073-5.082-47.238-11.305c-2.525-1.036-5.222-1.646-7.787-2.596
		c-4.404-1.63-8.49-2.78-9.437,3.918c-0.35,2.473-2.142,1.466-3.622,1.355c3.332-1.122,3.354-4.068,3.633-6.653
		c0.117-1.086-1.434-1.324-2.412-1.485c-3.548-0.584-2.819,3.283-4.607,4.598c-1.304-0.905-0.187-1.855-0.007-2.632
		c1.471-6.364,1.407-6.023,7.625-4.128c19.122,5.827,37.519,14.306,57.749,16.135c6.989,0.632,13.991,1.227,21.001,1.471
		C837.702,674.483,839.657,675.112,838.596,678.981z M779.701,742.079c8.106-7.89,16.212-15.78,24.318-23.67
		C797.754,728.105,789.723,736.101,779.701,742.079z M806.574,720.054c-2.314,5.467-6.263,9.753-10.71,13.661
		C797.683,727.883,803.439,724.987,806.574,720.054z M852.069,589.384c-0.83,25.022-1.941,50.007-7.112,74.61
		c-1.846,8.782-2.659,9.37-10.763,6.207c-11.631-4.539-23.956-5.628-36.09-7.683c-9.659-1.636-18.81-4.878-27.669-9.239
		c6.732,1.76,13.47,3.496,20.194,5.287c6.981,1.86,14.133,2.829,21.29,3.316c7.108,0.484,14.289,2.006,21.701-0.226
		c-8.643-0.608-17.007-1.196-25.37-1.784c4.271-2.413,8.839-1.488,13.265-1.688c7.781-0.352,19.685-8.848,22.549-16.332
		c-4.826,4.564-9.819,8.875-16.47,10.721c3.894-4.232,10.164-5.633,13.103-10.966c-7.031,3.319-13.186,8.541-21.347,9.636
		c9.002-5.968,17.688-12.22,22.708-22.244c-1.264,1.557-2.414,3.228-3.823,4.639c-1.493,1.496-2.736,3.425-5.835,4.245
		c5.077-8.872,10.963-16.611,12.129-26.43c-2.19,2.819-2.499,6.875-6.348,9.045c0.255-3.041,3.414-4.215,3.194-7.484
		c-3.067,2.561-5.358,5.599-9.844,6.974c3.073-3.609,5.676-6.666,8.28-9.723c-4.892,3.773-9.327,8.022-17.191,9.719
		c6.557-4.877,12.175-8.831,15.426-15.095c-5.009,4.747-9.796,9.783-16.338,12.535c5.975-5.62,12.846-10.453,16.287-19.756
		c-2.145,1.936-3.371,3.043-4.596,4.15c3.456-6.226,5.834-12.793,8.123-19.529c-13.887,14.324-31.226,22.014-49.927,27.17
		c9.942-5.272,20.492-9.361,29.961-15.59c5.535-3.641,10.487-7.746,13.096-14.049c1.322-3.193,2.108-6.449,0.291-10.179
		c-2.203,2.01-1.241,5.363-3.934,6.794c-0.406-3.861,2.407-7.98-0.328-11.511c-2.442-3.153-5.406-5.901-7.526-9.529
		c4.276,3.269,8.265,7.057,12.92,9.646c3.771,2.098,7.033,3.505,4.963,8.608c-0.286,0.706,0.314,1.281,1.112,1.336
		c1.2,0.083,1.344-0.867,1.454-1.697c0.463-3.493-0.59-6.792-1.463-10.089c-0.477-1.802-1.264-3.521-1.193-5.915
		c1.617,2.12,3.74,4.023,4.758,6.4C849.214,571.871,852.375,580.162,852.069,589.384z M875.873,618.095
		c-0.258-3.556-0.358-6.398-0.7-9.21c-0.33-2.711-1.041-5.076-4.322-0.654c-0.355-10.295,0.768-20.003-6.601-29.342
		c0.819,8.041-0.118,14.333-4.559,19.661c0.697-8.014-0.409-15.555-4.101-23.209c-1.185,3,1.284,5.19-0.252,8.393
		c-2.155-6.161-4.107-11.741-6.224-17.793c2.286,0.232,3.279,1.686,4.473,2.685c4.043,3.382,7.803,7.056,13.158,8.56
		c3.318,0.932,5.321,3.538,6.047,7.036c1.769,8.532,3.637,17.044,5.382,25.581C878.753,612.631,878.817,615.436,875.873,618.095z
		 M902.479,623.549c-1.263-5.492-2.134-11.074-3.183-16.616c-0.206-1.087,0.281-2.797-1.392-2.845
		c-1.834-0.053-1.903,1.633-1.921,3.007c-0.041,3.232-0.013,6.464-0.594,9.708c0-8.309,0-16.618,0-24.927
		c-3.906,4.697-1.167,10.318-2.886,16.096c-2.498-4.939-0.985-10.183-3.095-14.57c-2.313,0.728-1.605,2.567-1.675,3.904
		c-0.38,7.258,0.767,14.321,2.895,21.257c0.598,1.949,1.202,3.984,1.259,5.994c0.169,6.071-3.022,7.923-8.926,5.383
		c6.084-1.504,6.555-2.115,5.186-8.319c-2.554-11.572-5.866-22.882-12.184-33.079c-0.535-0.864-0.951-1.81-1.336-2.754
		c-0.099-0.243,0.132-0.621,0.329-1.402c6.911,3.093,14.335,4.031,21.563,5.782c4.632,1.121,6.017,5.306,5.811,9.16
		c-0.601,11.23,0.341,22.126,5.319,33.893C903.98,629.917,903.194,626.656,902.479,623.549z M923.919,594.734
		c0.591-5.004,4.679-7.914,7.191-11.795c2.492-3.851,5.291-7.502,8.309-11.008C935.984,580.629,930.427,587.946,923.919,594.734z"/>
	<path d="M928.758,629.638c0.025,0.009,0.043,0.023,0.068,0.032c0.018-0.006,0.032-0.016,0.05-0.022
		c0.007-0.026,0.017-0.049,0.024-0.076C928.848,629.602,928.807,629.61,928.758,629.638z"/>
	<path d="M764.584,588.25c-0.024-0.071-0.04-0.142-0.065-0.213c-0.13-0.089-0.26-0.158-0.391-0.243
		c0.082,0.121,0.188,0.227,0.264,0.353C764.465,588.176,764.516,588.218,764.584,588.25z"/>
	<path d="M677.96,513.261c-0.043-0.02-0.085-0.033-0.127-0.054c-0.007,0.003-0.015,0.005-0.022,0.008
		c-0.04,0.037-0.079,0.07-0.119,0.108C677.781,513.303,677.87,513.281,677.96,513.261z"/>
	<path d="M654.284,883.218c0.049,0.064,0.093,0.131,0.142,0.195c0.051,0.018,0.102,0.026,0.153,0.043
		c-0.018-0.053-0.043-0.094-0.059-0.151C654.437,883.282,654.367,883.243,654.284,883.218z"/>
	<path d="M716.083,595.286c-0.038,0.055-0.078,0.099-0.116,0.157c0.065-0.006,0.123-0.003,0.186-0.007
		c-0.022-0.032-0.045-0.063-0.068-0.094C716.083,595.323,716.085,595.304,716.083,595.286z"/>
	<g>
		<path style="fill:#006837;" d="M676.97,136.035c-20.473,10.046-41.212,19.433-62.683,27.206
			c-27.731,10.039-55.917,18.679-84.117,27.215c-38.644,11.696-73.637,30.548-107.262,52.396
			c-35.683,23.185-74.073,38.474-117.171,40.476c-13.87,0.644-27.643,2.848-40.622,8.335c-17.399,7.357-29.591,20.712-40.511,35.452
			c-8.465,11.426-15.843,23.648-25.209,34.419c-8.964,10.309-20.25,13.689-33.372,10.787c-5.663-1.252-11.193-3.183-16.696-5.063
			c-11.844-4.048-23.624-8.387-36.041-10.294c-11.818-1.816-17.968,1.465-21.792,12.188c-6.235,17.486-7.359,35.527-3.607,53.71
			c2.078,10.069,8.325,17.02,17.706,21.293c5.865,2.672,12.133,3.614,18.337,4.863c13.962,2.811,22.595,11.933,24.579,26.076
			c1.085,7.734,0.467,15.408-0.863,23.037c-2.003,11.482-4.591,22.882-6.087,34.427c-3.709,28.611-3.525,56.669,10.914,83.128
			c17.624,32.297,42.044,55.533,79.24,62.975c17.979,3.597,22.815-1.059,19.887-19.378c-1.365-8.542-0.775-16.834,3.444-24.493
			c15.693-28.491,39.927-43.429,72.37-44.759c10.1-0.414,16.833,4.087,19.797,13.867c3.657,12.069,8.209,13.01,16.377,3.094
			c16.728-20.309,38.111-28.032,64.023-24.577c9.496,1.266,19.102,2.012,28.731,1.062c25.733-2.54,48.193-13.251,68.335-28.704
			c28.005-21.486,55.023-44.216,83.956-64.547c43.797-30.777,88.339-60.25,135.722-85.323
			c30.163-15.961,61.395-29.719,91.634-45.491c1.587-0.828,2.723-1.102,3.683-0.851L679.353,133.754
			C679.245,134.614,678.457,135.305,676.97,136.035z"/>
		
			<ellipse transform="matrix(0.7071 -0.7071 0.7071 0.7071 -130.1945 449.5594)" style="fill:#FF0000;" cx="477.569" cy="381.938" rx="107.064" ry="107.064"/>
	</g>
</g>
</svg>
