<svg xmlns="http://www.w3.org/2000/svg" xmlns:xlink="http://www.w3.org/1999/xlink" xmlns:v="https://vecta.io/nano" width="84.53" height="75"><defs><clipPath id="A"><path fill="none" d="M0 0h84.53v75H0z"></path></clipPath><path id="B" d="M8.038 6.37c1.312 0 2.376 1.064 2.376 2.376s-1.064 2.376-2.376 2.376-2.376-1.064-2.376-2.376S6.726 6.37 8.038 6.37"></path><path id="C" d="M15.167 6.37c1.312 0 2.376 1.064 2.376 2.376s-1.064 2.376-2.376 2.376-2.376-1.064-2.376-2.376c0-.63.25-1.234.696-1.68s1.05-.696 1.68-.696"></path><path id="D" d="M48.458 6.319h28.21c1.305-.007 2.369 1.045 2.376 2.351s-1.045 2.369-2.351 2.376H48.458c-1.287-.018-2.323-1.063-2.33-2.351s1.017-2.344 2.304-2.376h.026"></path></defs><g clip-path="url(#A)"><path d="M5.283 0h73.964c2.917 0 5.282 2.365 5.283 5.282v64.434A5.28 5.28 0 0 1 79.247 75H5.283A5.28 5.28 0 0 1 0 69.716V5.282C.001 2.365 2.366 0 5.283 0" fill="#cbcccb"></path><path d="M79.019 14.509v50.556c-.055 3.037-2.547 5.462-5.584 5.435H11.223c-3.039.029-5.533-2.397-5.588-5.435V14.509z" fill="#fff"></path><g fill="#9a9a9a"><use xlink:href="#B"></use><use xlink:href="#C"></use><path d="M22.321 6.37c1.312 0 2.376 1.064 2.376 2.376s-1.064 2.376-2.376 2.376-2.376-1.064-2.376-2.376c0-.63.25-1.234.696-1.68s1.05-.696 1.68-.696"></path><use xlink:href="#D"></use><use xlink:href="#B"></use><use xlink:href="#C"></use><path d="M22.321 6.37c1.312 0 2.376 1.064 2.376 2.376s-1.064 2.376-2.376 2.376-2.376-1.064-2.376-2.376c0-.63.25-1.234.696-1.68s1.05-.696 1.68-.696"></path><use xlink:href="#D"></use></g><path d="M16.234 53.202l7.33-7.642 11.292 2.7 9.168-8.674 11.407 5.977 12.99-13.753" fill="none" stroke="#00ad3c" stroke-linecap="round" stroke-linejoin="round" stroke-width="7"></path></g></svg>