<svg xmlns="http://www.w3.org/2000/svg" xmlns:v="https://vecta.io/nano" width="86.563" height="57.25"><path d="M4.994 0h76.575c1.325 0 2.595.526 3.532 1.462s1.463 2.207 1.463 3.532v47.262a5 5 0 0 1-4.995 4.995H4.994c-1.325 0-2.595-.526-3.532-1.463S0 53.581 0 52.256V4.994C0 2.236 2.236 0 4.994 0" fill="#ff9300"></path><path d="M80.471 57.25L48.732 22.024a7.77 7.77 0 0 0-10.811-.919 7.62 7.62 0 0 0-.935.919L5.248 57.25z" fill="#f0850f"></path><path d="M4.732 0l32.779 39.742a7.62 7.62 0 0 0 10.575 1.583 7.52 7.52 0 0 0 1.6-1.583L82.49 0z" fill="#ffa400"></path></svg>