<svg xmlns="http://www.w3.org/2000/svg" xmlns:xlink="http://www.w3.org/1999/xlink" width="90" height="90"><path d="M3.958 1.446h70.437a3.96 3.96 0 0 1 3.958 3.957V66.34a3.96 3.96 0 0 1-3.958 3.958H3.958A3.96 3.96 0 0 1 0 66.341V5.404a3.96 3.96 0 0 1 3.958-3.958" fill="#cfd0cf"></path><path d="M72.988 14.41v46.767a5.1 5.1 0 0 1-5.158 5.009H10.374a5.1 5.1 0 0 1-5.156-5.009V14.41h67.77z" fill="#fff"></path><g fill="#9e9e9e"><use xlink:href="#B"></use><use xlink:href="#C"></use><use xlink:href="#C" x="6.606"></use><use xlink:href="#D"></use><use xlink:href="#B"></use><use xlink:href="#C"></use><use xlink:href="#C" x="6.606"></use><use xlink:href="#D"></use></g><path d="M15.605 19.699h70.437A3.96 3.96 0 0 1 90 23.656v60.943a3.96 3.96 0 0 1-3.958 3.958H15.605a3.96 3.96 0 0 1-3.958-3.958V23.657a3.96 3.96 0 0 1 3.958-3.958" fill="#cfd0cf"></path><path d="M84.635 32.662V79.43a5.1 5.1 0 0 1-5.158 5.009H22.021a5.1 5.1 0 0 1-5.156-5.009V32.662h67.77z" fill="#fff"></path><g fill="#9e9e9e"><use xlink:href="#E"></use><use xlink:href="#E" x="6.596"></use><use xlink:href="#F"></use><use xlink:href="#G"></use><use xlink:href="#E"></use><use xlink:href="#E" x="6.596"></use><use xlink:href="#F"></use><use xlink:href="#G"></use></g><path d="M78.134 55.364h.005zm.001 0h-1.122a1.637 1.637 0 0 1-1.563-1.181 17.11 17.11 0 0 0-1.358-3.253 1.64 1.64 0 0 1 .267-1.946l.817-.817a1.82 1.82 0 0 0 .005-2.571l-.005-.005-2.697-2.697a1.82 1.82 0 0 0-2.571-.005l-.005.005-.805.806a1.63 1.63 0 0 1-1.692.379 25.87 25.87 0 0 0-3.478-1.502 1.637 1.637 0 0 1-1.186-1.565V39.9a1.82 1.82 0 0 0-1.818-1.818h-3.832a1.82 1.82 0 0 0-1.818 1.818v1.107a1.635 1.635 0 0 1-1.186 1.563 17.008 17.008 0 0 0-3.13 1.288l-.13.067c-.635.35-1.425.24-1.94-.27l-.797-.797a1.843 1.843 0 0 0-2.593 0l-2.697 2.697a1.82 1.82 0 0 0-.005 2.571l.005.005.775.775c.512.518.621 1.312.266 1.948a25.764 25.764 0 0 0-1.413 3.563 1.63 1.63 0 0 1-1.449.898h-1.163a1.82 1.82 0 0 0-1.818 1.818v3.815a1.82 1.82 0 0 0 1.818 1.818h1.14a1.64 1.64 0 0 1 1.566 1.19 17.08 17.08 0 0 0 1.337 3.261 1.636 1.636 0 0 1-.272 1.937l-.809.809a1.82 1.82 0 0 0-.004 2.571l.004.004 2.697 2.698a1.82 1.82 0 0 0 2.571.005l.005-.005.784-.784a1.637 1.637 0 0 1 1.943-.269 17.04 17.04 0 0 0 3.272 1.348 1.64 1.64 0 0 1 1.186 1.565v1.135a1.82 1.82 0 0 0 1.818 1.818h3.815a1.82 1.82 0 0 0 1.818-1.818v-1.096a1.634 1.634 0 0 1 1.069-1.526 224.39 224.39 0 0 0 3.546-1.473 1.63 1.63 0 0 1 1.779.345l.786.786a1.82 1.82 0 0 0 2.571.005l.005-.005 2.697-2.697a1.82 1.82 0 0 0 .005-2.571l-.005-.005-.79-.79a1.64 1.64 0 0 1-.266-1.947 17.08 17.08 0 0 0 1.363-3.264 1.637 1.637 0 0 1 1.563-1.181h1.126a1.82 1.82 0 0 0 1.818-1.818v-3.815a1.82 1.82 0 0 0-1.817-1.818zM63.463 69.672l-.002-.001a.54.54 0 0 0-.084.046l-.017.005c-5.882 2.399-12.595-.424-14.995-6.306s.424-12.595 6.306-14.995c.291-.119.586-.225.886-.32l.079-.025c.064-.02.129-.037.194-.055a11.503 11.503 0 1 1 7.633 21.65z" fill="#0090c1"></path><path d="M41.641 40.837H22.639a1.38 1.38 0 0 1-1.381-1.378 1.38 1.38 0 0 1 1.378-1.381h19.005a1.38 1.38 0 0 1 1.381 1.378 1.38 1.38 0 0 1-1.378 1.381h-.003m-3.918 6.305H22.639a1.38 1.38 0 0 1-1.381-1.378 1.38 1.38 0 0 1 1.378-1.381h15.088a1.38 1.38 0 0 1 1.381 1.378 1.38 1.38 0 0 1-1.378 1.381h-.003m-4.448 6.305H22.447a1.186 1.186 0 0 1-1.186-1.186v-.386c0-.655.531-1.186 1.186-1.186h10.829c.655 0 1.186.531 1.186 1.186v.386c0 .655-.531 1.186-1.186 1.186" fill="#9d9d9d"></path><defs><path id="B" d="M7.413 6.881A2.2 2.2 0 0 1 9.612 9.08a2.2 2.2 0 0 1-2.199 2.199A2.2 2.2 0 0 1 5.214 9.08a2.2 2.2 0 0 1 2.199-2.199"></path><path id="C" d="M14.01 6.881a2.2 2.2 0 0 1 2.199 2.199 2.2 2.2 0 0 1-2.199 2.199 2.2 2.2 0 0 1-2.199-2.199 2.2 2.2 0 0 1 2.199-2.199"></path><path id="D" d="M44.752 6.879h26.062a2.174 2.174 0 0 1 0 4.348H44.752a2.174 2.174 0 0 1 0-4.348"></path><path id="E" d="M19.061 25.133a2.2 2.2 0 0 1 2.199 2.199 2.2 2.2 0 0 1-2.199 2.199 2.2 2.2 0 0 1-2.199-2.199 2.2 2.2 0 0 1 2.199-2.199"></path><path id="F" d="M32.263 25.133a2.2 2.2 0 0 1 2.197 2.201 2.2 2.2 0 0 1-2.201 2.197 2.2 2.2 0 0 1-2.197-2.199 2.2 2.2 0 0 1 2.199-2.199"></path><path id="G" d="M56.399 25.131h26.062a2.174 2.174 0 0 1 0 4.348H56.399a2.174 2.174 0 0 1 0-4.348"></path></defs></svg>