<svg xmlns="http://www.w3.org/2000/svg" xmlns:xlink="http://www.w3.org/1999/xlink" xmlns:v="https://vecta.io/nano" width="69.784" height="75"><path d="M9.842 26.164v13.882c0 12.82 9.138 24.367 21.856 25.967a25.12 25.12 0 0 0 28.254-24.854V25.051A25.12 25.12 0 0 0 31.697.196C18.979 1.802 9.842 13.344 9.842 26.164zm38.546 7.582a13.59 13.59 0 0 1-19.546 12.142 13.12 13.12 0 0 1-7.433-12.04V24.97a13.11 13.11 0 0 1 7.433-12.039 13.59 13.59 0 0 1 19.55 12.141z" fill="#9f9f9f"></path><rect width="69.784" height="45.695" rx="4" fill="#fdb515" y="29.304"></rect><rect width="51.329" height="15.554" rx="7.349" fill="#fff" x="9.228" y="43.629"></rect><g fill="#5c5c5c"><circle cx="18.906" cy="51.406" r="3.362"></circle><circle cx="29.379" cy="51.406" r="3.362"></circle><circle cx="39.853" cy="51.406" r="3.362"></circle><circle cx="50.324" cy="51.406" r="3.362"></circle></g><g fill="#ef9a21"><use xlink:href="#B"></use><use xlink:href="#B"></use><path d="M65.772 30.156a7.26 7.26 0 0 0-3.4-.847H7.235a7.26 7.26 0 0 0-3.719 1.022c2.857 2.421 15.662 4.249 31.034 4.249 15.743.001 28.795-1.916 31.222-4.424z"></path></g><defs><path id="B" d="M3.514 74.154a7.26 7.26 0 0 0 3.4.847h55.137a7.26 7.26 0 0 0 3.719-1.022c-2.857-2.421-15.662-4.249-31.034-4.249-15.743-.003-28.793 1.914-31.222 4.424z"></path></defs></svg>