<svg xmlns="http://www.w3.org/2000/svg" xmlns:xlink="http://www.w3.org/1999/xlink" xmlns:v="https://vecta.io/nano" width="70.545" height="80"><path d="M2.488 0h44.28a2.49 2.49 0 0 1 2.488 2.488V40.8a2.49 2.49 0 0 1-2.488 2.488H2.488A2.49 2.49 0 0 1 0 40.8V2.488A2.49 2.49 0 0 1 2.488 0" fill="#cbcccb"></path><path d="M45.884 8.147v29.4c-.031 1.762-1.479 3.169-3.242 3.149H6.522c-1.763.02-3.211-1.387-3.242-3.149v-29.4z" fill="#fff"></path><g fill="#9a9a9a"><use xlink:href="#B"></use><use xlink:href="#B" x="4.147"></use><use xlink:href="#B" x="8.3"></use><use xlink:href="#C"></use><use xlink:href="#B"></use><use xlink:href="#B" x="4.147"></use><use xlink:href="#B" x="8.3"></use><use xlink:href="#C"></use></g><path d="M9.601 12.33h44.28a2.49 2.49 0 0 1 2.488 2.488v38.309a2.49 2.49 0 0 1-2.488 2.488H9.601a2.49 2.49 0 0 1-2.488-2.488V14.818a2.49 2.49 0 0 1 2.488-2.488" fill="#cbcccb"></path><path d="M52.995 20.482v29.4c-.031 1.762-1.479 3.169-3.242 3.149H13.635c-1.762.019-3.209-1.387-3.24-3.149v-29.4z" fill="#fff"></path><g fill="#9a9a9a"><use xlink:href="#D"></use><use xlink:href="#D" x="4.147"></use><use xlink:href="#D" x="8.3"></use><use xlink:href="#E"></use><use xlink:href="#D"></use><use xlink:href="#D" x="4.147"></use><use xlink:href="#D" x="8.3"></use><use xlink:href="#E"></use></g><path d="M16.876 24.424h44.28a2.49 2.49 0 0 1 2.488 2.488v38.309a2.49 2.49 0 0 1-2.488 2.488h-44.28a2.49 2.49 0 0 1-2.488-2.488V26.912a2.49 2.49 0 0 1 2.488-2.488" fill="#cbcccb"></path><path d="M60.274 32.574v29.4c-.031 1.762-1.479 3.169-3.242 3.149h-36.12c-1.763.02-3.211-1.387-3.242-3.149v-29.4z" fill="#fff"></path><g fill="#9a9a9a"><use xlink:href="#B" x="14.392" y="24.425"></use><use xlink:href="#B" x="18.537" y="24.425"></use><use xlink:href="#B" x="22.69" y="24.425"></use><use xlink:href="#F"></use><use xlink:href="#B" x="14.392" y="24.425"></use><use xlink:href="#B" x="18.537" y="24.425"></use><use xlink:href="#B" x="22.69" y="24.425"></use><use xlink:href="#F"></use></g><path d="M33.242 37.712H21.299c-.31 0-.596-.165-.751-.433s-.155-.599 0-.867.441-.434.751-.433h11.943c.31 0 .596.165.751.433s.155.599 0 .867-.441.434-.751.433m-2.459 3.963H21.3c-.479 0-.867-.388-.867-.867s.388-.867.867-.867h9.483c.31 0 .596.165.751.433s.155.599 0 .867-.441.434-.751.433m-2.796 3.966h-6.808c-.412 0-.746-.334-.746-.746v-.243c0-.412.334-.746.746-.746h6.809c.412 0 .746.334.746.746v.243c0 .412-.334.746-.746.746" fill="#999"></path><circle cx="50.445" cy="58.554" r="18.016" fill="#4fb246"></circle><path d="M50.656 69.175a.77.77 0 0 1-.8-.741l-.5-7.459c-.017-.254-.228-.452-.483-.451h-1.912a1.08 1.08 0 0 1-1-1.485l4.329-11.324a.75.75 0 0 1 .718-.487c.412-.011.761.301.794.712l.639 7.2c.022.25.231.441.482.441h1.543a1.08 1.08 0 0 1 1.026 1.409l-4.1 11.645c-.093.327-.397.55-.737.541" fill="#fff"></path><defs><path id="B" d="M4.661 3.416c.559 0 1.064.337 1.278.854s.096 1.112-.3 1.507-.99.514-1.507.3-.854-.718-.854-1.278a1.38 1.38 0 0 1 1.383-1.383"></path><path id="C" d="M28.132 3.415h16.384c.74.02 1.329.625 1.329 1.366s-.589 1.345-1.329 1.366H28.132c-.74-.02-1.329-.625-1.329-1.365s.589-1.345 1.329-1.365"></path><path id="D" d="M11.774 15.746c.764 0 1.383.619 1.383 1.383s-.619 1.383-1.383 1.383-1.383-.619-1.383-1.383c0-.367.146-.719.405-.978s.611-.405.978-.405"></path><path id="E" d="M35.245 15.744h16.384c.74.02 1.329.625 1.329 1.365s-.589 1.345-1.329 1.365H35.245c-.74-.02-1.329-.625-1.329-1.366s.589-1.345 1.329-1.365"></path><path id="F" d="M42.523 27.839h16.388c.74.02 1.329.625 1.329 1.365s-.589 1.345-1.329 1.365H42.523c-.74-.02-1.329-.625-1.329-1.365s.589-1.345 1.329-1.365"></path></defs></svg>