<svg xmlns="http://www.w3.org/2000/svg" viewBox="0 0 80 60"><path d="M71.56 60H36.23a3.18 3.18 0 0 1-3.171-3.171V25.122a3.18 3.18 0 0 1 3.171-3.171h35.33a3.18 3.18 0 0 1 3.171 3.171v31.707A3.18 3.18 0 0 1 71.56 60z" fill="#d7d7d7"></path><path d="M72.013 29.199v25.735a2.764 2.764 0 0 1-2.757 2.757H38.534a2.764 2.764 0 0 1-2.757-2.757V29.199h36.236z" fill="#fff"></path><g fill="#adadad"><circle cx="36.923" cy="25.816" r="1.147"></circle><circle cx="40.363" cy="25.816" r="1.147"></circle><circle cx="44.032" cy="25.816" r="1.147"></circle><path d="M57.292 24.669h13.589a1.132 1.132 0 0 1 0 2.264H57.292a1.132 1.132 0 0 1-1.132-1.132 1.13 1.13 0 0 1 1.132-1.132z"></path></g><path d="M51.831 46.016H9.104a3.846 3.846 0 0 1-3.835-3.835V3.835A3.846 3.846 0 0 1 9.104 0h42.727a3.846 3.846 0 0 1 3.835 3.835v38.346a3.845 3.845 0 0 1-3.835 3.835z" fill="#d7d7d7"></path><path d="M52.38 8.765v31.124a3.344 3.344 0 0 1-3.335 3.335H11.89a3.344 3.344 0 0 1-3.335-3.335V8.765H52.38z" fill="#fff"></path><g fill="#adadad"><circle cx="9.942" cy="4.674" r="1.387"></circle><circle cx="14.103" cy="4.674" r="1.387"></circle><circle cx="18.54" cy="4.674" r="1.387"></circle><path d="M34.576 3.287H51.01a1.37 1.37 0 1 1 0 2.74H34.576a1.37 1.37 0 1 1 0-2.74z"></path></g><path d="M30.942 13.254a12.01 12.01 0 0 1 6.692 2.282 12.21 12.21 0 0 1 4.708 6.664 10.75 10.75 0 0 1 .408 2.17l.065 1.323a12.383 12.383 0 0 1-8.089 11.473c-.847.313-1.727.53-2.622.646a11.85 11.85 0 0 1-2.381.087 12.386 12.386 0 0 1-11.348-9.894 11.045 11.045 0 0 1-.227-1.994 2.135 2.135 0 0 0-.027-.211v-.434l.052-.694a10.77 10.77 0 0 1 .281-1.865 12.2 12.2 0 0 1 4.501-6.993 12.036 12.036 0 0 1 7.077-2.562h.913m-.47.522c-6.519 0-11.804 5.285-11.804 11.804s5.285 11.804 11.804 11.804 11.804-5.285 11.804-11.804a11.82 11.82 0 0 0-11.804-11.804m-6.47 6.862l1.194-.115a.44.44 0 0 0 .403-.477.452.452 0 0 0-.489-.42l-.03.004-.781.058-2.41.07c-.07 0-.141-.008-.255-.015a10.58 10.58 0 0 1 14.657-2.982c.438.29.854.612 1.244.964l-.471.076a1.87 1.87 0 0 0-1.343 1.518 2.477 2.477 0 0 0 .261 1.483l.663 1.174a6.72 6.72 0 0 1 .843 1.936 4.88 4.88 0 0 1-.063 2.453l-.884 3-.742 2.477c-.008.027-.018.053-.039.109L31.957 20.63l.405-.035.815-.076a.434.434 0 0 0 .372-.515.44.44 0 0 0-.484-.384l-1.431.089-1.567.043-1.902-.086-.709-.046a.443.443 0 0 0-.466.417.42.42 0 0 0 .347.481.38.38 0 0 0 .058.005l1.03.1a.171.171 0 0 1 .105.102l.716 1.955.848 2.33c.027.074.03.154.01.23l-2.228 6.701c-.008.025-.02.049-.04.096l-3.831-11.401m6.66 5.928l3.293 9.02-.814.24a10.69 10.69 0 0 1-5.518-.046c-.105-.028-.119-.07-.085-.168l3.087-8.965c.006-.022.018-.041.037-.081m-4.885 8.512a10.621 10.621 0 0 1-5.011-13.734l.034-.004 5.006 13.716-.029.022m14.032-14.465a10.593 10.593 0 0 1-3.942 14.081l-.027-.018.308-.894 2.881-8.314a17.27 17.27 0 0 0 .611-1.937 8.897 8.897 0 0 0 .221-2.102c-.006-.273-.032-.545-.049-.816" fill="#444140"></path><path d="M56.185 35.242l12.87 2.993v19.456h-12.87V35.242z" fill="#0b7692"></path><g fill="#0d8dc1"><path d="M56.451 38.171H37.105c.509-2.148-1.308-6.408 0-8.021v-4.699h19.346c7.039 0 12.637 6.207 12.637 13.873v11.561A12.26 12.26 0 0 0 57.314 38.17a11.16 11.16 0 0 0-.858 0"></path><path d="M42.803 44.395c1.895 1.539 3.444.803 3.444-1.639v-21.86c0-2.442-1.469-3.088-3.27-1.437l-11.215 10.3a3.736 3.736 0 0 0-.385 5.27 3.74 3.74 0 0 0 .569.534l10.857 8.832z"></path></g></svg>